solid OpenSCAD_Model
  facet normal -1 0 0
    outer loop
      vertex 0 0 0
      vertex 0 13 5
      vertex 0 13 0
    endloop
  endfacet
  facet normal -1 -0 0
    outer loop
      vertex 0 13 5
      vertex 0 0 0
      vertex 0 0 5
    endloop
  endfacet
  facet normal -0 0 1
    outer loop
      vertex 29.7558 5.44871 5
      vertex 35 0 5
      vertex 35 13 5
    endloop
  endfacet
  facet normal 0 0 1
    outer loop
      vertex 35 0 5
      vertex 29.7889 5.22544 5
      vertex 29.8 5 5
    endloop
  endfacet
  facet normal 0 0 1
    outer loop
      vertex 35 0 5
      vertex 29.7558 5.44871 5
      vertex 29.7889 5.22544 5
    endloop
  endfacet
  facet normal 0 0 1
    outer loop
      vertex 35 13 5
      vertex 29.701 5.66765 5
      vertex 29.7558 5.44871 5
    endloop
  endfacet
  facet normal 0 0 1
    outer loop
      vertex 35 13 5
      vertex 29.6249 5.88017 5
      vertex 29.701 5.66765 5
    endloop
  endfacet
  facet normal 0 0 1
    outer loop
      vertex 35 13 5
      vertex 29.5284 6.08421 5
      vertex 29.6249 5.88017 5
    endloop
  endfacet
  facet normal 0 0 1
    outer loop
      vertex 35 13 5
      vertex 29.4124 6.27781 5
      vertex 29.5284 6.08421 5
    endloop
  endfacet
  facet normal 0 0 1
    outer loop
      vertex 35 13 5
      vertex 29.2779 6.4591 5
      vertex 29.4124 6.27781 5
    endloop
  endfacet
  facet normal 0 0 1
    outer loop
      vertex 35 13 5
      vertex 29.1263 6.62634 5
      vertex 29.2779 6.4591 5
    endloop
  endfacet
  facet normal 0 0 1
    outer loop
      vertex 35 13 5
      vertex 28.9591 6.77792 5
      vertex 29.1263 6.62634 5
    endloop
  endfacet
  facet normal 0 0 1
    outer loop
      vertex 35 13 5
      vertex 28.7778 6.91238 5
      vertex 28.9591 6.77792 5
    endloop
  endfacet
  facet normal 0 0 1
    outer loop
      vertex 35 13 5
      vertex 28.5842 7.02842 5
      vertex 28.7778 6.91238 5
    endloop
  endfacet
  facet normal 0 0 1
    outer loop
      vertex 35 13 5
      vertex 28.3802 7.12492 5
      vertex 28.5842 7.02842 5
    endloop
  endfacet
  facet normal 0 0 1
    outer loop
      vertex 35 13 5
      vertex 28.1677 7.20096 5
      vertex 28.3802 7.12492 5
    endloop
  endfacet
  facet normal 0 0 1
    outer loop
      vertex 35 13 5
      vertex 27.9487 7.25581 5
      vertex 28.1677 7.20096 5
    endloop
  endfacet
  facet normal 0 0 1
    outer loop
      vertex 35 13 5
      vertex 27.7254 7.28892 5
      vertex 27.9487 7.25581 5
    endloop
  endfacet
  facet normal 0 0 1
    outer loop
      vertex 35 13 5
      vertex 27.5 7.3 5
      vertex 27.7254 7.28892 5
    endloop
  endfacet
  facet normal 0 0 1
    outer loop
      vertex 35 13 5
      vertex 27.2746 7.28892 5
      vertex 27.5 7.3 5
    endloop
  endfacet
  facet normal 0 0 1
    outer loop
      vertex 35 13 5
      vertex 27.0513 7.25581 5
      vertex 27.2746 7.28892 5
    endloop
  endfacet
  facet normal 0 0 1
    outer loop
      vertex 35 13 5
      vertex 26.8323 7.20096 5
      vertex 27.0513 7.25581 5
    endloop
  endfacet
  facet normal 0 0 1
    outer loop
      vertex 35 13 5
      vertex 26.6198 7.12492 5
      vertex 26.8323 7.20096 5
    endloop
  endfacet
  facet normal 0 0 1
    outer loop
      vertex 8.38017 7.12492 5
      vertex 26.6198 7.12492 5
      vertex 35 13 5
    endloop
  endfacet
  facet normal 0 0 1
    outer loop
      vertex 26.6198 7.12492 5
      vertex 8.38017 7.12492 5
      vertex 26.4158 7.02842 5
    endloop
  endfacet
  facet normal 0 0 1
    outer loop
      vertex 25.2111 5.22544 5
      vertex 9.8 5 5
      vertex 25.2 5 5
    endloop
  endfacet
  facet normal 0 0 1
    outer loop
      vertex 9.78892 5.22544 5
      vertex 25.2111 5.22544 5
      vertex 25.2442 5.44871 5
    endloop
  endfacet
  facet normal 0 0 1
    outer loop
      vertex 9.75581 5.44871 5
      vertex 25.2442 5.44871 5
      vertex 25.299 5.66765 5
    endloop
  endfacet
  facet normal 0 0 1
    outer loop
      vertex 9.70096 5.66765 5
      vertex 25.299 5.66765 5
      vertex 25.3751 5.88017 5
    endloop
  endfacet
  facet normal 0 0 1
    outer loop
      vertex 9.62492 5.88017 5
      vertex 25.3751 5.88017 5
      vertex 25.4716 6.08421 5
    endloop
  endfacet
  facet normal 0 0 1
    outer loop
      vertex 9.52842 6.08421 5
      vertex 25.4716 6.08421 5
      vertex 25.5876 6.27781 5
    endloop
  endfacet
  facet normal 0 0 1
    outer loop
      vertex 9.41238 6.27781 5
      vertex 25.5876 6.27781 5
      vertex 25.7221 6.4591 5
    endloop
  endfacet
  facet normal 0 0 1
    outer loop
      vertex 9.27792 6.4591 5
      vertex 25.7221 6.4591 5
      vertex 25.8737 6.62634 5
    endloop
  endfacet
  facet normal 0 0 1
    outer loop
      vertex 9.12634 6.62634 5
      vertex 25.8737 6.62634 5
      vertex 26.0409 6.77792 5
    endloop
  endfacet
  facet normal 0 0 1
    outer loop
      vertex 8.9591 6.77792 5
      vertex 26.0409 6.77792 5
      vertex 26.2222 6.91238 5
    endloop
  endfacet
  facet normal 0 -0 1
    outer loop
      vertex 8.58421 7.02842 5
      vertex 26.4158 7.02842 5
      vertex 8.38017 7.12492 5
    endloop
  endfacet
  facet normal 0 0 1
    outer loop
      vertex 25.2111 5.22544 5
      vertex 9.78892 5.22544 5
      vertex 9.8 5 5
    endloop
  endfacet
  facet normal 0 0 1
    outer loop
      vertex 25.2442 5.44871 5
      vertex 9.75581 5.44871 5
      vertex 9.78892 5.22544 5
    endloop
  endfacet
  facet normal 0 0 1
    outer loop
      vertex 25.299 5.66765 5
      vertex 9.70096 5.66765 5
      vertex 9.75581 5.44871 5
    endloop
  endfacet
  facet normal 0 0 1
    outer loop
      vertex 25.3751 5.88017 5
      vertex 9.62492 5.88017 5
      vertex 9.70096 5.66765 5
    endloop
  endfacet
  facet normal 0 0 1
    outer loop
      vertex 25.4716 6.08421 5
      vertex 9.52842 6.08421 5
      vertex 9.62492 5.88017 5
    endloop
  endfacet
  facet normal 0 0 1
    outer loop
      vertex 25.5876 6.27781 5
      vertex 9.41238 6.27781 5
      vertex 9.52842 6.08421 5
    endloop
  endfacet
  facet normal 0 0 1
    outer loop
      vertex 25.7221 6.4591 5
      vertex 9.27792 6.4591 5
      vertex 9.41238 6.27781 5
    endloop
  endfacet
  facet normal 0 0 1
    outer loop
      vertex 25.8737 6.62634 5
      vertex 9.12634 6.62634 5
      vertex 9.27792 6.4591 5
    endloop
  endfacet
  facet normal 0 0 1
    outer loop
      vertex 26.0409 6.77792 5
      vertex 8.9591 6.77792 5
      vertex 9.12634 6.62634 5
    endloop
  endfacet
  facet normal 0 0 1
    outer loop
      vertex 26.2222 6.91238 5
      vertex 8.77781 6.91238 5
      vertex 8.9591 6.77792 5
    endloop
  endfacet
  facet normal 0 0 1
    outer loop
      vertex 26.2222 6.91238 5
      vertex 8.58421 7.02842 5
      vertex 8.77781 6.91238 5
    endloop
  endfacet
  facet normal 0 0 1
    outer loop
      vertex 26.4158 7.02842 5
      vertex 8.58421 7.02842 5
      vertex 26.2222 6.91238 5
    endloop
  endfacet
  facet normal -0 0 1
    outer loop
      vertex 0 13 5
      vertex 8.38017 7.12492 5
      vertex 35 13 5
    endloop
  endfacet
  facet normal 0 0 1
    outer loop
      vertex 8.38017 7.12492 5
      vertex 0 13 5
      vertex 8.16765 7.20096 5
    endloop
  endfacet
  facet normal 0 0 1
    outer loop
      vertex 8.16765 7.20096 5
      vertex 0 13 5
      vertex 7.94871 7.25581 5
    endloop
  endfacet
  facet normal 0 0 1
    outer loop
      vertex 7.94871 7.25581 5
      vertex 0 13 5
      vertex 7.72544 7.28892 5
    endloop
  endfacet
  facet normal 0 0 1
    outer loop
      vertex 7.72544 7.28892 5
      vertex 0 13 5
      vertex 7.5 7.3 5
    endloop
  endfacet
  facet normal 0 0 1
    outer loop
      vertex 7.5 7.3 5
      vertex 0 13 5
      vertex 7.27456 7.28892 5
    endloop
  endfacet
  facet normal 0 0 1
    outer loop
      vertex 5.24419 5.44871 5
      vertex 0 0 5
      vertex 5.21107 5.22544 5
    endloop
  endfacet
  facet normal 0 0 1
    outer loop
      vertex 0 0 5
      vertex 5.24419 5.44871 5
      vertex 0 13 5
    endloop
  endfacet
  facet normal 0 0 1
    outer loop
      vertex 5.29904 5.66765 5
      vertex 0 13 5
      vertex 5.24419 5.44871 5
    endloop
  endfacet
  facet normal 0 0 1
    outer loop
      vertex 5.37508 5.88017 5
      vertex 0 13 5
      vertex 5.29904 5.66765 5
    endloop
  endfacet
  facet normal 0 0 1
    outer loop
      vertex 5.47158 6.08421 5
      vertex 0 13 5
      vertex 5.37508 5.88017 5
    endloop
  endfacet
  facet normal 0 0 1
    outer loop
      vertex 5.58762 6.27781 5
      vertex 0 13 5
      vertex 5.47158 6.08421 5
    endloop
  endfacet
  facet normal 0 0 1
    outer loop
      vertex 5.72208 6.4591 5
      vertex 0 13 5
      vertex 5.58762 6.27781 5
    endloop
  endfacet
  facet normal 0 0 1
    outer loop
      vertex 5.87365 6.62634 5
      vertex 0 13 5
      vertex 5.72208 6.4591 5
    endloop
  endfacet
  facet normal 0 0 1
    outer loop
      vertex 6.04089 6.77792 5
      vertex 0 13 5
      vertex 5.87365 6.62634 5
    endloop
  endfacet
  facet normal 0 0 1
    outer loop
      vertex 6.22219 6.91238 5
      vertex 0 13 5
      vertex 6.04089 6.77792 5
    endloop
  endfacet
  facet normal 0 0 1
    outer loop
      vertex 6.41579 7.02842 5
      vertex 0 13 5
      vertex 6.22219 6.91238 5
    endloop
  endfacet
  facet normal 0 0 1
    outer loop
      vertex 6.61983 7.12492 5
      vertex 0 13 5
      vertex 6.41579 7.02842 5
    endloop
  endfacet
  facet normal 0 0 1
    outer loop
      vertex 6.83235 7.20096 5
      vertex 0 13 5
      vertex 6.61983 7.12492 5
    endloop
  endfacet
  facet normal 0 0 1
    outer loop
      vertex 7.05129 7.25581 5
      vertex 0 13 5
      vertex 6.83235 7.20096 5
    endloop
  endfacet
  facet normal 0 0 1
    outer loop
      vertex 7.27456 7.28892 5
      vertex 0 13 5
      vertex 7.05129 7.25581 5
    endloop
  endfacet
  facet normal -0 0 1
    outer loop
      vertex 29.7889 4.77456 5
      vertex 35 0 5
      vertex 29.8 5 5
    endloop
  endfacet
  facet normal -0 0 1
    outer loop
      vertex 29.7558 4.55129 5
      vertex 35 0 5
      vertex 29.7889 4.77456 5
    endloop
  endfacet
  facet normal -0 0 1
    outer loop
      vertex 29.701 4.33235 5
      vertex 35 0 5
      vertex 29.7558 4.55129 5
    endloop
  endfacet
  facet normal -0 0 1
    outer loop
      vertex 29.6249 4.11983 5
      vertex 35 0 5
      vertex 29.701 4.33235 5
    endloop
  endfacet
  facet normal -0 0 1
    outer loop
      vertex 29.5284 3.91579 5
      vertex 35 0 5
      vertex 29.6249 4.11983 5
    endloop
  endfacet
  facet normal -0 0 1
    outer loop
      vertex 29.4124 3.72219 5
      vertex 35 0 5
      vertex 29.5284 3.91579 5
    endloop
  endfacet
  facet normal -0 0 1
    outer loop
      vertex 29.2779 3.54089 5
      vertex 35 0 5
      vertex 29.4124 3.72219 5
    endloop
  endfacet
  facet normal -0 0 1
    outer loop
      vertex 29.1263 3.37365 5
      vertex 35 0 5
      vertex 29.2779 3.54089 5
    endloop
  endfacet
  facet normal -0 0 1
    outer loop
      vertex 28.9591 3.22208 5
      vertex 35 0 5
      vertex 29.1263 3.37365 5
    endloop
  endfacet
  facet normal -0 0 1
    outer loop
      vertex 28.7778 3.08762 5
      vertex 35 0 5
      vertex 28.9591 3.22208 5
    endloop
  endfacet
  facet normal -0 0 1
    outer loop
      vertex 28.5842 2.97158 5
      vertex 35 0 5
      vertex 28.7778 3.08762 5
    endloop
  endfacet
  facet normal -0 0 1
    outer loop
      vertex 28.3802 2.87508 5
      vertex 35 0 5
      vertex 28.5842 2.97158 5
    endloop
  endfacet
  facet normal -0 0 1
    outer loop
      vertex 28.1677 2.79904 5
      vertex 35 0 5
      vertex 28.3802 2.87508 5
    endloop
  endfacet
  facet normal -0 0 1
    outer loop
      vertex 27.9487 2.74419 5
      vertex 35 0 5
      vertex 28.1677 2.79904 5
    endloop
  endfacet
  facet normal -0 0 1
    outer loop
      vertex 27.7254 2.71107 5
      vertex 35 0 5
      vertex 27.9487 2.74419 5
    endloop
  endfacet
  facet normal -0 0 1
    outer loop
      vertex 27.5 2.7 5
      vertex 35 0 5
      vertex 27.7254 2.71107 5
    endloop
  endfacet
  facet normal 0 0 1
    outer loop
      vertex 27.2746 2.71107 5
      vertex 35 0 5
      vertex 27.5 2.7 5
    endloop
  endfacet
  facet normal 0 0 1
    outer loop
      vertex 27.0513 2.74419 5
      vertex 35 0 5
      vertex 27.2746 2.71107 5
    endloop
  endfacet
  facet normal 0 0 1
    outer loop
      vertex 7.94871 2.74419 5
      vertex 27.0513 2.74419 5
      vertex 26.8323 2.79904 5
    endloop
  endfacet
  facet normal -0 0 1
    outer loop
      vertex 9.8 5 5
      vertex 25.2111 4.77456 5
      vertex 25.2 5 5
    endloop
  endfacet
  facet normal 0 0 1
    outer loop
      vertex 9.78892 4.77456 5
      vertex 25.2111 4.77456 5
      vertex 9.8 5 5
    endloop
  endfacet
  facet normal 0 0 1
    outer loop
      vertex 25.2111 4.77456 5
      vertex 9.78892 4.77456 5
      vertex 25.2442 4.55129 5
    endloop
  endfacet
  facet normal 0 0 1
    outer loop
      vertex 9.75581 4.55129 5
      vertex 25.2442 4.55129 5
      vertex 9.78892 4.77456 5
    endloop
  endfacet
  facet normal 0 0 1
    outer loop
      vertex 25.2442 4.55129 5
      vertex 9.75581 4.55129 5
      vertex 25.299 4.33235 5
    endloop
  endfacet
  facet normal 0 0 1
    outer loop
      vertex 9.70096 4.33235 5
      vertex 25.299 4.33235 5
      vertex 9.75581 4.55129 5
    endloop
  endfacet
  facet normal 0 0 1
    outer loop
      vertex 25.299 4.33235 5
      vertex 9.70096 4.33235 5
      vertex 25.3751 4.11983 5
    endloop
  endfacet
  facet normal 0 0 1
    outer loop
      vertex 9.62492 4.11983 5
      vertex 25.3751 4.11983 5
      vertex 9.70096 4.33235 5
    endloop
  endfacet
  facet normal 0 0 1
    outer loop
      vertex 25.3751 4.11983 5
      vertex 9.62492 4.11983 5
      vertex 25.4716 3.91579 5
    endloop
  endfacet
  facet normal 0 0 1
    outer loop
      vertex 9.52842 3.91579 5
      vertex 25.4716 3.91579 5
      vertex 9.62492 4.11983 5
    endloop
  endfacet
  facet normal 0 0 1
    outer loop
      vertex 25.4716 3.91579 5
      vertex 9.52842 3.91579 5
      vertex 25.5876 3.72219 5
    endloop
  endfacet
  facet normal 0 0 1
    outer loop
      vertex 9.41238 3.72219 5
      vertex 25.5876 3.72219 5
      vertex 9.52842 3.91579 5
    endloop
  endfacet
  facet normal 0 0 1
    outer loop
      vertex 25.5876 3.72219 5
      vertex 9.41238 3.72219 5
      vertex 25.7221 3.54089 5
    endloop
  endfacet
  facet normal 0 0 1
    outer loop
      vertex 9.27792 3.54089 5
      vertex 25.7221 3.54089 5
      vertex 9.41238 3.72219 5
    endloop
  endfacet
  facet normal 0 0 1
    outer loop
      vertex 25.7221 3.54089 5
      vertex 9.27792 3.54089 5
      vertex 25.8737 3.37365 5
    endloop
  endfacet
  facet normal 0 0 1
    outer loop
      vertex 9.12634 3.37365 5
      vertex 25.8737 3.37365 5
      vertex 9.27792 3.54089 5
    endloop
  endfacet
  facet normal 0 0 1
    outer loop
      vertex 25.8737 3.37365 5
      vertex 9.12634 3.37365 5
      vertex 26.0409 3.22208 5
    endloop
  endfacet
  facet normal 0 0 1
    outer loop
      vertex 8.9591 3.22208 5
      vertex 26.0409 3.22208 5
      vertex 9.12634 3.37365 5
    endloop
  endfacet
  facet normal 0 0 1
    outer loop
      vertex 26.0409 3.22208 5
      vertex 8.9591 3.22208 5
      vertex 26.2222 3.08762 5
    endloop
  endfacet
  facet normal 0 0 1
    outer loop
      vertex 8.77781 3.08762 5
      vertex 26.2222 3.08762 5
      vertex 8.9591 3.22208 5
    endloop
  endfacet
  facet normal 0 0 1
    outer loop
      vertex 26.2222 3.08762 5
      vertex 8.77781 3.08762 5
      vertex 26.4158 2.97158 5
    endloop
  endfacet
  facet normal 0 0 1
    outer loop
      vertex 8.58421 2.97158 5
      vertex 26.4158 2.97158 5
      vertex 8.77781 3.08762 5
    endloop
  endfacet
  facet normal 0 0 1
    outer loop
      vertex 26.4158 2.97158 5
      vertex 8.58421 2.97158 5
      vertex 26.6198 2.87508 5
    endloop
  endfacet
  facet normal 0 0 1
    outer loop
      vertex 8.38017 2.87508 5
      vertex 26.6198 2.87508 5
      vertex 8.58421 2.97158 5
    endloop
  endfacet
  facet normal 0 0 1
    outer loop
      vertex 26.6198 2.87508 5
      vertex 8.38017 2.87508 5
      vertex 26.8323 2.79904 5
    endloop
  endfacet
  facet normal 0 0 1
    outer loop
      vertex 8.16765 2.79904 5
      vertex 26.8323 2.79904 5
      vertex 8.38017 2.87508 5
    endloop
  endfacet
  facet normal 0 0 1
    outer loop
      vertex 7.94871 2.74419 5
      vertex 26.8323 2.79904 5
      vertex 8.16765 2.79904 5
    endloop
  endfacet
  facet normal 0 0 1
    outer loop
      vertex 27.0513 2.74419 5
      vertex 7.94871 2.74419 5
      vertex 35 0 5
    endloop
  endfacet
  facet normal 0 0 1
    outer loop
      vertex 0 0 5
      vertex 7.94871 2.74419 5
      vertex 7.72544 2.71107 5
    endloop
  endfacet
  facet normal 0 0 1
    outer loop
      vertex 0 0 5
      vertex 7.72544 2.71107 5
      vertex 7.5 2.7 5
    endloop
  endfacet
  facet normal 0 0 1
    outer loop
      vertex 0 0 5
      vertex 7.5 2.7 5
      vertex 7.27456 2.71107 5
    endloop
  endfacet
  facet normal 0 0 1
    outer loop
      vertex 5.21107 5.22544 5
      vertex 0 0 5
      vertex 5.2 5 5
    endloop
  endfacet
  facet normal 0 0 1
    outer loop
      vertex 5.2 5 5
      vertex 0 0 5
      vertex 5.21107 4.77456 5
    endloop
  endfacet
  facet normal 0 0 1
    outer loop
      vertex 5.21107 4.77456 5
      vertex 0 0 5
      vertex 5.24419 4.55129 5
    endloop
  endfacet
  facet normal 0 0 1
    outer loop
      vertex 5.24419 4.55129 5
      vertex 0 0 5
      vertex 5.29904 4.33235 5
    endloop
  endfacet
  facet normal 0 0 1
    outer loop
      vertex 5.29904 4.33235 5
      vertex 0 0 5
      vertex 5.37508 4.11983 5
    endloop
  endfacet
  facet normal 0 0 1
    outer loop
      vertex 5.37508 4.11983 5
      vertex 0 0 5
      vertex 5.47158 3.91579 5
    endloop
  endfacet
  facet normal 0 0 1
    outer loop
      vertex 7.94871 2.74419 5
      vertex 0 0 5
      vertex 35 0 5
    endloop
  endfacet
  facet normal 0 0 1
    outer loop
      vertex 7.05129 2.74419 5
      vertex 0 0 5
      vertex 7.27456 2.71107 5
    endloop
  endfacet
  facet normal 0 0 1
    outer loop
      vertex 6.83235 2.79904 5
      vertex 0 0 5
      vertex 7.05129 2.74419 5
    endloop
  endfacet
  facet normal 0 0 1
    outer loop
      vertex 6.61983 2.87508 5
      vertex 0 0 5
      vertex 6.83235 2.79904 5
    endloop
  endfacet
  facet normal 0 0 1
    outer loop
      vertex 6.41579 2.97158 5
      vertex 0 0 5
      vertex 6.61983 2.87508 5
    endloop
  endfacet
  facet normal 0 0 1
    outer loop
      vertex 6.22219 3.08762 5
      vertex 0 0 5
      vertex 6.41579 2.97158 5
    endloop
  endfacet
  facet normal 0 0 1
    outer loop
      vertex 6.04089 3.22208 5
      vertex 0 0 5
      vertex 6.22219 3.08762 5
    endloop
  endfacet
  facet normal 0 0 1
    outer loop
      vertex 5.87365 3.37365 5
      vertex 0 0 5
      vertex 6.04089 3.22208 5
    endloop
  endfacet
  facet normal 0 0 1
    outer loop
      vertex 5.72208 3.54089 5
      vertex 0 0 5
      vertex 5.87365 3.37365 5
    endloop
  endfacet
  facet normal 0 0 1
    outer loop
      vertex 5.58762 3.72219 5
      vertex 0 0 5
      vertex 5.72208 3.54089 5
    endloop
  endfacet
  facet normal 0 0 1
    outer loop
      vertex 5.47158 3.91579 5
      vertex 0 0 5
      vertex 5.58762 3.72219 5
    endloop
  endfacet
  facet normal 1 -0 0
    outer loop
      vertex 35 0 5
      vertex 35 13 0
      vertex 35 13 5
    endloop
  endfacet
  facet normal 1 0 0
    outer loop
      vertex 35 13 0
      vertex 35 0 5
      vertex 35 0 0
    endloop
  endfacet
  facet normal 0 0 -1
    outer loop
      vertex 29.7889 5.22544 0
      vertex 35 0 0
      vertex 29.8 5 0
    endloop
  endfacet
  facet normal 0 0 -1
    outer loop
      vertex 35 0 0
      vertex 29.7889 4.77456 0
      vertex 29.8 5 0
    endloop
  endfacet
  facet normal 0 0 -1
    outer loop
      vertex 35 0 0
      vertex 29.7558 4.55129 0
      vertex 29.7889 4.77456 0
    endloop
  endfacet
  facet normal 0 0 -1
    outer loop
      vertex 35 0 0
      vertex 29.701 4.33235 0
      vertex 29.7558 4.55129 0
    endloop
  endfacet
  facet normal 0 0 -1
    outer loop
      vertex 35 0 0
      vertex 29.6249 4.11983 0
      vertex 29.701 4.33235 0
    endloop
  endfacet
  facet normal 0 0 -1
    outer loop
      vertex 35 0 0
      vertex 29.5284 3.91579 0
      vertex 29.6249 4.11983 0
    endloop
  endfacet
  facet normal 0 0 -1
    outer loop
      vertex 35 0 0
      vertex 29.4124 3.72219 0
      vertex 29.5284 3.91579 0
    endloop
  endfacet
  facet normal 0 0 -1
    outer loop
      vertex 35 0 0
      vertex 29.2779 3.54089 0
      vertex 29.4124 3.72219 0
    endloop
  endfacet
  facet normal 0 0 -1
    outer loop
      vertex 35 0 0
      vertex 29.1263 3.37365 0
      vertex 29.2779 3.54089 0
    endloop
  endfacet
  facet normal 0 0 -1
    outer loop
      vertex 35 0 0
      vertex 28.9591 3.22208 0
      vertex 29.1263 3.37365 0
    endloop
  endfacet
  facet normal 0 0 -1
    outer loop
      vertex 35 0 0
      vertex 28.7778 3.08762 0
      vertex 28.9591 3.22208 0
    endloop
  endfacet
  facet normal 0 0 -1
    outer loop
      vertex 35 0 0
      vertex 28.5842 2.97158 0
      vertex 28.7778 3.08762 0
    endloop
  endfacet
  facet normal 0 0 -1
    outer loop
      vertex 35 0 0
      vertex 28.3802 2.87508 0
      vertex 28.5842 2.97158 0
    endloop
  endfacet
  facet normal 0 0 -1
    outer loop
      vertex 35 0 0
      vertex 28.1677 2.79904 0
      vertex 28.3802 2.87508 0
    endloop
  endfacet
  facet normal 0 0 -1
    outer loop
      vertex 35 0 0
      vertex 27.9487 2.74419 0
      vertex 28.1677 2.79904 0
    endloop
  endfacet
  facet normal 0 0 -1
    outer loop
      vertex 35 0 0
      vertex 27.7254 2.71107 0
      vertex 27.9487 2.74419 0
    endloop
  endfacet
  facet normal 0 0 -1
    outer loop
      vertex 35 0 0
      vertex 27.5 2.7 0
      vertex 27.7254 2.71107 0
    endloop
  endfacet
  facet normal 0 0 -1
    outer loop
      vertex 35 0 0
      vertex 27.2746 2.71107 0
      vertex 27.5 2.7 0
    endloop
  endfacet
  facet normal 0 0 -1
    outer loop
      vertex 35 0 0
      vertex 27.0513 2.74419 0
      vertex 27.2746 2.71107 0
    endloop
  endfacet
  facet normal 0 0 -1
    outer loop
      vertex 7.94871 2.74419 0
      vertex 27.0513 2.74419 0
      vertex 35 0 0
    endloop
  endfacet
  facet normal 0 0 -1
    outer loop
      vertex 25.2111 4.77456 0
      vertex 9.8 5 0
      vertex 25.2 5 0
    endloop
  endfacet
  facet normal 0 0 -1
    outer loop
      vertex 9.78892 4.77456 0
      vertex 25.2111 4.77456 0
      vertex 25.2442 4.55129 0
    endloop
  endfacet
  facet normal 0 0 -1
    outer loop
      vertex 9.75581 4.55129 0
      vertex 25.2442 4.55129 0
      vertex 25.299 4.33235 0
    endloop
  endfacet
  facet normal 0 0 -1
    outer loop
      vertex 9.70096 4.33235 0
      vertex 25.299 4.33235 0
      vertex 25.3751 4.11983 0
    endloop
  endfacet
  facet normal 0 0 -1
    outer loop
      vertex 9.62492 4.11983 0
      vertex 25.3751 4.11983 0
      vertex 25.4716 3.91579 0
    endloop
  endfacet
  facet normal 0 0 -1
    outer loop
      vertex 9.52842 3.91579 0
      vertex 25.4716 3.91579 0
      vertex 25.5876 3.72219 0
    endloop
  endfacet
  facet normal 0 0 -1
    outer loop
      vertex 9.41238 3.72219 0
      vertex 25.5876 3.72219 0
      vertex 25.7221 3.54089 0
    endloop
  endfacet
  facet normal 0 0 -1
    outer loop
      vertex 9.27792 3.54089 0
      vertex 25.7221 3.54089 0
      vertex 25.8737 3.37365 0
    endloop
  endfacet
  facet normal 0 0 -1
    outer loop
      vertex 9.12634 3.37365 0
      vertex 25.8737 3.37365 0
      vertex 26.0409 3.22208 0
    endloop
  endfacet
  facet normal 0 0 -1
    outer loop
      vertex 8.9591 3.22208 0
      vertex 26.0409 3.22208 0
      vertex 26.2222 3.08762 0
    endloop
  endfacet
  facet normal 0 0 -1
    outer loop
      vertex 8.77781 3.08762 0
      vertex 26.2222 3.08762 0
      vertex 26.4158 2.97158 0
    endloop
  endfacet
  facet normal 0 0 -1
    outer loop
      vertex 8.58421 2.97158 0
      vertex 26.4158 2.97158 0
      vertex 26.6198 2.87508 0
    endloop
  endfacet
  facet normal 0 0 -1
    outer loop
      vertex 8.38017 2.87508 0
      vertex 26.6198 2.87508 0
      vertex 26.8323 2.79904 0
    endloop
  endfacet
  facet normal 0 0 -1
    outer loop
      vertex 27.0513 2.74419 0
      vertex 7.94871 2.74419 0
      vertex 26.8323 2.79904 0
    endloop
  endfacet
  facet normal 0 0 -1
    outer loop
      vertex 25.2111 4.77456 0
      vertex 9.78892 4.77456 0
      vertex 9.8 5 0
    endloop
  endfacet
  facet normal 0 0 -1
    outer loop
      vertex 25.2442 4.55129 0
      vertex 9.75581 4.55129 0
      vertex 9.78892 4.77456 0
    endloop
  endfacet
  facet normal 0 0 -1
    outer loop
      vertex 25.299 4.33235 0
      vertex 9.70096 4.33235 0
      vertex 9.75581 4.55129 0
    endloop
  endfacet
  facet normal 0 0 -1
    outer loop
      vertex 25.3751 4.11983 0
      vertex 9.62492 4.11983 0
      vertex 9.70096 4.33235 0
    endloop
  endfacet
  facet normal 0 0 -1
    outer loop
      vertex 25.4716 3.91579 0
      vertex 9.52842 3.91579 0
      vertex 9.62492 4.11983 0
    endloop
  endfacet
  facet normal 0 0 -1
    outer loop
      vertex 25.5876 3.72219 0
      vertex 9.41238 3.72219 0
      vertex 9.52842 3.91579 0
    endloop
  endfacet
  facet normal 0 0 -1
    outer loop
      vertex 25.7221 3.54089 0
      vertex 9.27792 3.54089 0
      vertex 9.41238 3.72219 0
    endloop
  endfacet
  facet normal 0 0 -1
    outer loop
      vertex 25.8737 3.37365 0
      vertex 9.12634 3.37365 0
      vertex 9.27792 3.54089 0
    endloop
  endfacet
  facet normal 0 0 -1
    outer loop
      vertex 26.0409 3.22208 0
      vertex 8.9591 3.22208 0
      vertex 9.12634 3.37365 0
    endloop
  endfacet
  facet normal 0 0 -1
    outer loop
      vertex 26.2222 3.08762 0
      vertex 8.77781 3.08762 0
      vertex 8.9591 3.22208 0
    endloop
  endfacet
  facet normal 0 0 -1
    outer loop
      vertex 26.4158 2.97158 0
      vertex 8.58421 2.97158 0
      vertex 8.77781 3.08762 0
    endloop
  endfacet
  facet normal 0 0 -1
    outer loop
      vertex 26.6198 2.87508 0
      vertex 8.38017 2.87508 0
      vertex 8.58421 2.97158 0
    endloop
  endfacet
  facet normal 0 0 -1
    outer loop
      vertex 26.8323 2.79904 0
      vertex 8.16765 2.79904 0
      vertex 8.38017 2.87508 0
    endloop
  endfacet
  facet normal -0 0 -1
    outer loop
      vertex 26.8323 2.79904 0
      vertex 7.94871 2.74419 0
      vertex 8.16765 2.79904 0
    endloop
  endfacet
  facet normal 0 0 -1
    outer loop
      vertex 0 0 0
      vertex 7.94871 2.74419 0
      vertex 35 0 0
    endloop
  endfacet
  facet normal 0 0 -1
    outer loop
      vertex 7.94871 2.74419 0
      vertex 0 0 0
      vertex 7.72544 2.71107 0
    endloop
  endfacet
  facet normal 0 0 -1
    outer loop
      vertex 7.72544 2.71107 0
      vertex 0 0 0
      vertex 7.5 2.7 0
    endloop
  endfacet
  facet normal -0 0 -1
    outer loop
      vertex 5.21107 4.77456 0
      vertex 0 0 0
      vertex 5.2 5 0
    endloop
  endfacet
  facet normal -0 0 -1
    outer loop
      vertex 5.24419 4.55129 0
      vertex 0 0 0
      vertex 5.21107 4.77456 0
    endloop
  endfacet
  facet normal -0 0 -1
    outer loop
      vertex 5.29904 4.33235 0
      vertex 0 0 0
      vertex 5.24419 4.55129 0
    endloop
  endfacet
  facet normal -0 0 -1
    outer loop
      vertex 5.37508 4.11983 0
      vertex 0 0 0
      vertex 5.29904 4.33235 0
    endloop
  endfacet
  facet normal -0 0 -1
    outer loop
      vertex 5.47158 3.91579 0
      vertex 0 0 0
      vertex 5.37508 4.11983 0
    endloop
  endfacet
  facet normal -0 0 -1
    outer loop
      vertex 5.58762 3.72219 0
      vertex 0 0 0
      vertex 5.47158 3.91579 0
    endloop
  endfacet
  facet normal -0 0 -1
    outer loop
      vertex 5.72208 3.54089 0
      vertex 0 0 0
      vertex 5.58762 3.72219 0
    endloop
  endfacet
  facet normal -0 0 -1
    outer loop
      vertex 5.87365 3.37365 0
      vertex 0 0 0
      vertex 5.72208 3.54089 0
    endloop
  endfacet
  facet normal -0 0 -1
    outer loop
      vertex 6.04089 3.22208 0
      vertex 0 0 0
      vertex 5.87365 3.37365 0
    endloop
  endfacet
  facet normal -0 0 -1
    outer loop
      vertex 6.22219 3.08762 0
      vertex 0 0 0
      vertex 6.04089 3.22208 0
    endloop
  endfacet
  facet normal -0 0 -1
    outer loop
      vertex 6.41579 2.97158 0
      vertex 0 0 0
      vertex 6.22219 3.08762 0
    endloop
  endfacet
  facet normal -0 0 -1
    outer loop
      vertex 6.61983 2.87508 0
      vertex 0 0 0
      vertex 6.41579 2.97158 0
    endloop
  endfacet
  facet normal -0 0 -1
    outer loop
      vertex 6.83235 2.79904 0
      vertex 0 0 0
      vertex 6.61983 2.87508 0
    endloop
  endfacet
  facet normal -0 0 -1
    outer loop
      vertex 7.05129 2.74419 0
      vertex 0 0 0
      vertex 6.83235 2.79904 0
    endloop
  endfacet
  facet normal -0 0 -1
    outer loop
      vertex 7.27456 2.71107 0
      vertex 0 0 0
      vertex 7.05129 2.74419 0
    endloop
  endfacet
  facet normal -0 0 -1
    outer loop
      vertex 7.5 2.7 0
      vertex 0 0 0
      vertex 7.27456 2.71107 0
    endloop
  endfacet
  facet normal 0 0 -1
    outer loop
      vertex 29.7558 5.44871 0
      vertex 35 0 0
      vertex 29.7889 5.22544 0
    endloop
  endfacet
  facet normal 0 0 -1
    outer loop
      vertex 35 0 0
      vertex 29.7558 5.44871 0
      vertex 35 13 0
    endloop
  endfacet
  facet normal 0 0 -1
    outer loop
      vertex 29.701 5.66765 0
      vertex 35 13 0
      vertex 29.7558 5.44871 0
    endloop
  endfacet
  facet normal 0 0 -1
    outer loop
      vertex 29.6249 5.88017 0
      vertex 35 13 0
      vertex 29.701 5.66765 0
    endloop
  endfacet
  facet normal 0 0 -1
    outer loop
      vertex 29.5284 6.08421 0
      vertex 35 13 0
      vertex 29.6249 5.88017 0
    endloop
  endfacet
  facet normal 0 0 -1
    outer loop
      vertex 29.4124 6.27781 0
      vertex 35 13 0
      vertex 29.5284 6.08421 0
    endloop
  endfacet
  facet normal 0 0 -1
    outer loop
      vertex 29.2779 6.4591 0
      vertex 35 13 0
      vertex 29.4124 6.27781 0
    endloop
  endfacet
  facet normal 0 0 -1
    outer loop
      vertex 29.1263 6.62634 0
      vertex 35 13 0
      vertex 29.2779 6.4591 0
    endloop
  endfacet
  facet normal 0 0 -1
    outer loop
      vertex 28.9591 6.77792 0
      vertex 35 13 0
      vertex 29.1263 6.62634 0
    endloop
  endfacet
  facet normal 0 0 -1
    outer loop
      vertex 28.7778 6.91238 0
      vertex 35 13 0
      vertex 28.9591 6.77792 0
    endloop
  endfacet
  facet normal 0 0 -1
    outer loop
      vertex 28.5842 7.02842 0
      vertex 35 13 0
      vertex 28.7778 6.91238 0
    endloop
  endfacet
  facet normal 0 0 -1
    outer loop
      vertex 28.3802 7.12492 0
      vertex 35 13 0
      vertex 28.5842 7.02842 0
    endloop
  endfacet
  facet normal 0 0 -1
    outer loop
      vertex 28.1677 7.20096 0
      vertex 35 13 0
      vertex 28.3802 7.12492 0
    endloop
  endfacet
  facet normal 0 0 -1
    outer loop
      vertex 27.9487 7.25581 0
      vertex 35 13 0
      vertex 28.1677 7.20096 0
    endloop
  endfacet
  facet normal 0 0 -1
    outer loop
      vertex 27.7254 7.28892 0
      vertex 35 13 0
      vertex 27.9487 7.25581 0
    endloop
  endfacet
  facet normal 0 0 -1
    outer loop
      vertex 27.5 7.3 0
      vertex 35 13 0
      vertex 27.7254 7.28892 0
    endloop
  endfacet
  facet normal 0 0 -1
    outer loop
      vertex 27.2746 7.28892 0
      vertex 35 13 0
      vertex 27.5 7.3 0
    endloop
  endfacet
  facet normal 0 0 -1
    outer loop
      vertex 27.0513 7.25581 0
      vertex 35 13 0
      vertex 27.2746 7.28892 0
    endloop
  endfacet
  facet normal 0 0 -1
    outer loop
      vertex 26.8323 7.20096 0
      vertex 35 13 0
      vertex 27.0513 7.25581 0
    endloop
  endfacet
  facet normal 0 0 -1
    outer loop
      vertex 26.6198 7.12492 0
      vertex 35 13 0
      vertex 26.8323 7.20096 0
    endloop
  endfacet
  facet normal 0 0 -1
    outer loop
      vertex 8.38017 7.12492 0
      vertex 26.6198 7.12492 0
      vertex 26.4158 7.02842 0
    endloop
  endfacet
  facet normal 0 0 -1
    outer loop
      vertex 8.58421 7.02842 0
      vertex 26.4158 7.02842 0
      vertex 26.2222 6.91238 0
    endloop
  endfacet
  facet normal 0 0 -1
    outer loop
      vertex 9.8 5 0
      vertex 25.2111 5.22544 0
      vertex 25.2 5 0
    endloop
  endfacet
  facet normal 0 0 -1
    outer loop
      vertex 9.78892 5.22544 0
      vertex 25.2111 5.22544 0
      vertex 9.8 5 0
    endloop
  endfacet
  facet normal 0 0 -1
    outer loop
      vertex 25.2111 5.22544 0
      vertex 9.78892 5.22544 0
      vertex 25.2442 5.44871 0
    endloop
  endfacet
  facet normal 0 0 -1
    outer loop
      vertex 9.75581 5.44871 0
      vertex 25.2442 5.44871 0
      vertex 9.78892 5.22544 0
    endloop
  endfacet
  facet normal 0 0 -1
    outer loop
      vertex 25.2442 5.44871 0
      vertex 9.75581 5.44871 0
      vertex 25.299 5.66765 0
    endloop
  endfacet
  facet normal 0 0 -1
    outer loop
      vertex 9.70096 5.66765 0
      vertex 25.299 5.66765 0
      vertex 9.75581 5.44871 0
    endloop
  endfacet
  facet normal 0 0 -1
    outer loop
      vertex 25.299 5.66765 0
      vertex 9.70096 5.66765 0
      vertex 25.3751 5.88017 0
    endloop
  endfacet
  facet normal 0 0 -1
    outer loop
      vertex 9.62492 5.88017 0
      vertex 25.3751 5.88017 0
      vertex 9.70096 5.66765 0
    endloop
  endfacet
  facet normal 0 0 -1
    outer loop
      vertex 25.3751 5.88017 0
      vertex 9.62492 5.88017 0
      vertex 25.4716 6.08421 0
    endloop
  endfacet
  facet normal 0 0 -1
    outer loop
      vertex 9.52842 6.08421 0
      vertex 25.4716 6.08421 0
      vertex 9.62492 5.88017 0
    endloop
  endfacet
  facet normal 0 0 -1
    outer loop
      vertex 25.4716 6.08421 0
      vertex 9.52842 6.08421 0
      vertex 25.5876 6.27781 0
    endloop
  endfacet
  facet normal 0 0 -1
    outer loop
      vertex 9.41238 6.27781 0
      vertex 25.5876 6.27781 0
      vertex 9.52842 6.08421 0
    endloop
  endfacet
  facet normal 0 0 -1
    outer loop
      vertex 25.5876 6.27781 0
      vertex 9.41238 6.27781 0
      vertex 25.7221 6.4591 0
    endloop
  endfacet
  facet normal 0 0 -1
    outer loop
      vertex 9.27792 6.4591 0
      vertex 25.7221 6.4591 0
      vertex 9.41238 6.27781 0
    endloop
  endfacet
  facet normal 0 0 -1
    outer loop
      vertex 25.7221 6.4591 0
      vertex 9.27792 6.4591 0
      vertex 25.8737 6.62634 0
    endloop
  endfacet
  facet normal 0 0 -1
    outer loop
      vertex 9.12634 6.62634 0
      vertex 25.8737 6.62634 0
      vertex 9.27792 6.4591 0
    endloop
  endfacet
  facet normal 0 0 -1
    outer loop
      vertex 25.8737 6.62634 0
      vertex 9.12634 6.62634 0
      vertex 26.0409 6.77792 0
    endloop
  endfacet
  facet normal 0 0 -1
    outer loop
      vertex 8.9591 6.77792 0
      vertex 26.0409 6.77792 0
      vertex 9.12634 6.62634 0
    endloop
  endfacet
  facet normal 0 0 -1
    outer loop
      vertex 26.0409 6.77792 0
      vertex 8.9591 6.77792 0
      vertex 26.2222 6.91238 0
    endloop
  endfacet
  facet normal 0 0 -1
    outer loop
      vertex 8.77781 6.91238 0
      vertex 26.2222 6.91238 0
      vertex 8.9591 6.77792 0
    endloop
  endfacet
  facet normal 0 0 -1
    outer loop
      vertex 8.58421 7.02842 0
      vertex 26.2222 6.91238 0
      vertex 8.77781 6.91238 0
    endloop
  endfacet
  facet normal 0 0 -1
    outer loop
      vertex 26.4158 7.02842 0
      vertex 8.58421 7.02842 0
      vertex 8.38017 7.12492 0
    endloop
  endfacet
  facet normal 0 0 -1
    outer loop
      vertex 26.6198 7.12492 0
      vertex 8.38017 7.12492 0
      vertex 35 13 0
    endloop
  endfacet
  facet normal 0 0 -1
    outer loop
      vertex 0 13 0
      vertex 8.38017 7.12492 0
      vertex 8.16765 7.20096 0
    endloop
  endfacet
  facet normal 0 0 -1
    outer loop
      vertex 0 13 0
      vertex 8.16765 7.20096 0
      vertex 7.94871 7.25581 0
    endloop
  endfacet
  facet normal 0 0 -1
    outer loop
      vertex 0 13 0
      vertex 7.94871 7.25581 0
      vertex 7.72544 7.28892 0
    endloop
  endfacet
  facet normal 0 0 -1
    outer loop
      vertex 0 13 0
      vertex 7.72544 7.28892 0
      vertex 7.5 7.3 0
    endloop
  endfacet
  facet normal 0 0 -1
    outer loop
      vertex 0 13 0
      vertex 7.5 7.3 0
      vertex 7.27456 7.28892 0
    endloop
  endfacet
  facet normal 0 0 -1
    outer loop
      vertex 0 13 0
      vertex 7.27456 7.28892 0
      vertex 7.05129 7.25581 0
    endloop
  endfacet
  facet normal 0 0 -1
    outer loop
      vertex 0 0 0
      vertex 5.21107 5.22544 0
      vertex 5.2 5 0
    endloop
  endfacet
  facet normal 0 0 -1
    outer loop
      vertex 0 0 0
      vertex 5.24419 5.44871 0
      vertex 5.21107 5.22544 0
    endloop
  endfacet
  facet normal 0 0 -1
    outer loop
      vertex 0 13 0
      vertex 5.24419 5.44871 0
      vertex 0 0 0
    endloop
  endfacet
  facet normal 0 0 -1
    outer loop
      vertex 5.24419 5.44871 0
      vertex 0 13 0
      vertex 5.29904 5.66765 0
    endloop
  endfacet
  facet normal 0 0 -1
    outer loop
      vertex 5.29904 5.66765 0
      vertex 0 13 0
      vertex 5.37508 5.88017 0
    endloop
  endfacet
  facet normal 0 0 -1
    outer loop
      vertex 5.37508 5.88017 0
      vertex 0 13 0
      vertex 5.47158 6.08421 0
    endloop
  endfacet
  facet normal 0 0 -1
    outer loop
      vertex 5.47158 6.08421 0
      vertex 0 13 0
      vertex 5.58762 6.27781 0
    endloop
  endfacet
  facet normal 0 0 -1
    outer loop
      vertex 8.38017 7.12492 0
      vertex 0 13 0
      vertex 35 13 0
    endloop
  endfacet
  facet normal 0 0 -1
    outer loop
      vertex 6.83235 7.20096 0
      vertex 0 13 0
      vertex 7.05129 7.25581 0
    endloop
  endfacet
  facet normal 0 0 -1
    outer loop
      vertex 6.61983 7.12492 0
      vertex 0 13 0
      vertex 6.83235 7.20096 0
    endloop
  endfacet
  facet normal 0 0 -1
    outer loop
      vertex 6.41579 7.02842 0
      vertex 0 13 0
      vertex 6.61983 7.12492 0
    endloop
  endfacet
  facet normal 0 0 -1
    outer loop
      vertex 6.22219 6.91238 0
      vertex 0 13 0
      vertex 6.41579 7.02842 0
    endloop
  endfacet
  facet normal 0 0 -1
    outer loop
      vertex 6.04089 6.77792 0
      vertex 0 13 0
      vertex 6.22219 6.91238 0
    endloop
  endfacet
  facet normal 0 0 -1
    outer loop
      vertex 5.87365 6.62634 0
      vertex 0 13 0
      vertex 6.04089 6.77792 0
    endloop
  endfacet
  facet normal 0 0 -1
    outer loop
      vertex 5.72208 6.4591 0
      vertex 0 13 0
      vertex 5.87365 6.62634 0
    endloop
  endfacet
  facet normal 0 0 -1
    outer loop
      vertex 5.58762 6.27781 0
      vertex 0 13 0
      vertex 5.72208 6.4591 0
    endloop
  endfacet
  facet normal 0 -1 0
    outer loop
      vertex 0 0 0
      vertex 35 0 5
      vertex 0 0 5
    endloop
  endfacet
  facet normal 0 -1 -0
    outer loop
      vertex 35 0 5
      vertex 0 0 0
      vertex 35 0 0
    endloop
  endfacet
  facet normal 0 1 -0
    outer loop
      vertex 35 13 0
      vertex 0 13 5
      vertex 35 13 5
    endloop
  endfacet
  facet normal 0 1 0
    outer loop
      vertex 0 13 5
      vertex 35 13 0
      vertex 0 13 0
    endloop
  endfacet
  facet normal -0.998796 -0.0490631 0
    outer loop
      vertex 29.8 5 0
      vertex 29.7889 5.22544 5
      vertex 29.7889 5.22544 0
    endloop
  endfacet
  facet normal -0.998796 -0.0490631 0
    outer loop
      vertex 29.7889 5.22544 5
      vertex 29.8 5 0
      vertex 29.8 5 5
    endloop
  endfacet
  facet normal 0.0490669 -0.998795 0
    outer loop
      vertex 27.2746 7.28892 0
      vertex 27.5 7.3 5
      vertex 27.2746 7.28892 5
    endloop
  endfacet
  facet normal 0.0490669 -0.998795 0
    outer loop
      vertex 27.5 7.3 5
      vertex 27.2746 7.28892 0
      vertex 27.5 7.3 0
    endloop
  endfacet
  facet normal -0.0490673 0.998795 0
    outer loop
      vertex 27.7254 2.71107 0
      vertex 27.5 2.7 5
      vertex 27.7254 2.71107 5
    endloop
  endfacet
  facet normal -0.0490673 0.998795 0
    outer loop
      vertex 27.5 2.7 5
      vertex 27.7254 2.71107 0
      vertex 27.5 2.7 0
    endloop
  endfacet
  facet normal -0.671562 -0.740948 0
    outer loop
      vertex 28.9591 6.77792 0
      vertex 29.1263 6.62634 5
      vertex 28.9591 6.77792 5
    endloop
  endfacet
  facet normal -0.671562 -0.740948 -0
    outer loop
      vertex 29.1263 6.62634 5
      vertex 28.9591 6.77792 0
      vertex 29.1263 6.62634 0
    endloop
  endfacet
  facet normal 0.740953 -0.671557 0
    outer loop
      vertex 25.7221 6.4591 5
      vertex 25.8737 6.62634 0
      vertex 25.8737 6.62634 5
    endloop
  endfacet
  facet normal 0.740953 -0.671557 0
    outer loop
      vertex 25.8737 6.62634 0
      vertex 25.7221 6.4591 5
      vertex 25.7221 6.4591 0
    endloop
  endfacet
  facet normal 0.427556 -0.903989 0
    outer loop
      vertex 26.4158 7.02842 0
      vertex 26.6198 7.12492 5
      vertex 26.4158 7.02842 5
    endloop
  endfacet
  facet normal 0.427556 -0.903989 0
    outer loop
      vertex 26.6198 7.12492 5
      vertex 26.4158 7.02842 0
      vertex 26.6198 7.12492 0
    endloop
  endfacet
  facet normal 0.941546 0.336883 0
    outer loop
      vertex 25.3751 4.11983 5
      vertex 25.299 4.33235 0
      vertex 25.299 4.33235 5
    endloop
  endfacet
  facet normal 0.941546 0.336883 0
    outer loop
      vertex 25.299 4.33235 0
      vertex 25.3751 4.11983 5
      vertex 25.3751 4.11983 0
    endloop
  endfacet
  facet normal -0.903989 -0.427556 0
    outer loop
      vertex 29.6249 5.88017 0
      vertex 29.5284 6.08421 5
      vertex 29.5284 6.08421 0
    endloop
  endfacet
  facet normal -0.903989 -0.427556 0
    outer loop
      vertex 29.5284 6.08421 5
      vertex 29.6249 5.88017 0
      vertex 29.6249 5.88017 5
    endloop
  endfacet
  facet normal -0.336886 -0.941546 0
    outer loop
      vertex 28.1677 7.20096 0
      vertex 28.3802 7.12492 5
      vertex 28.1677 7.20096 5
    endloop
  endfacet
  facet normal -0.336886 -0.941546 -0
    outer loop
      vertex 28.3802 7.12492 5
      vertex 28.1677 7.20096 0
      vertex 28.3802 7.12492 0
    endloop
  endfacet
  facet normal 0.903989 -0.427556 0
    outer loop
      vertex 25.3751 5.88017 5
      vertex 25.4716 6.08421 0
      vertex 25.4716 6.08421 5
    endloop
  endfacet
  facet normal 0.903989 -0.427556 0
    outer loop
      vertex 25.4716 6.08421 0
      vertex 25.3751 5.88017 5
      vertex 25.3751 5.88017 0
    endloop
  endfacet
  facet normal 0.857727 -0.514105 0
    outer loop
      vertex 25.4716 6.08421 5
      vertex 25.5876 6.27781 0
      vertex 25.5876 6.27781 5
    endloop
  endfacet
  facet normal 0.857727 -0.514105 0
    outer loop
      vertex 25.5876 6.27781 0
      vertex 25.4716 6.08421 5
      vertex 25.4716 6.08421 0
    endloop
  endfacet
  facet normal 0.242981 -0.970031 0
    outer loop
      vertex 26.8323 7.20096 0
      vertex 27.0513 7.25581 5
      vertex 26.8323 7.20096 5
    endloop
  endfacet
  facet normal 0.242981 -0.970031 0
    outer loop
      vertex 27.0513 7.25581 5
      vertex 26.8323 7.20096 0
      vertex 27.0513 7.25581 0
    endloop
  endfacet
  facet normal -0.903989 0.427556 0
    outer loop
      vertex 29.5284 3.91579 0
      vertex 29.6249 4.11983 5
      vertex 29.6249 4.11983 0
    endloop
  endfacet
  facet normal -0.903989 0.427556 0
    outer loop
      vertex 29.6249 4.11983 5
      vertex 29.5284 3.91579 0
      vertex 29.5284 3.91579 5
    endloop
  endfacet
  facet normal -0.336886 0.941546 0
    outer loop
      vertex 28.3802 2.87508 0
      vertex 28.1677 2.79904 5
      vertex 28.3802 2.87508 5
    endloop
  endfacet
  facet normal -0.336886 0.941546 0
    outer loop
      vertex 28.1677 2.79904 5
      vertex 28.3802 2.87508 0
      vertex 28.1677 2.79904 0
    endloop
  endfacet
  facet normal -0.740948 0.671562 0
    outer loop
      vertex 29.1263 3.37365 0
      vertex 29.2779 3.54089 5
      vertex 29.2779 3.54089 0
    endloop
  endfacet
  facet normal -0.740948 0.671562 0
    outer loop
      vertex 29.2779 3.54089 5
      vertex 29.1263 3.37365 0
      vertex 29.1263 3.37365 5
    endloop
  endfacet
  facet normal -0.970031 0.242983 0
    outer loop
      vertex 29.701 4.33235 0
      vertex 29.7558 4.55129 5
      vertex 29.7558 4.55129 0
    endloop
  endfacet
  facet normal -0.970031 0.242983 0
    outer loop
      vertex 29.7558 4.55129 5
      vertex 29.701 4.33235 0
      vertex 29.701 4.33235 5
    endloop
  endfacet
  facet normal 0.242981 0.970031 -0
    outer loop
      vertex 27.0513 2.74419 0
      vertex 26.8323 2.79904 5
      vertex 27.0513 2.74419 5
    endloop
  endfacet
  facet normal 0.242981 0.970031 0
    outer loop
      vertex 26.8323 2.79904 5
      vertex 27.0513 2.74419 0
      vertex 26.8323 2.79904 0
    endloop
  endfacet
  facet normal 0.740953 0.671557 0
    outer loop
      vertex 25.8737 3.37365 5
      vertex 25.7221 3.54089 0
      vertex 25.7221 3.54089 5
    endloop
  endfacet
  facet normal 0.740953 0.671557 0
    outer loop
      vertex 25.7221 3.54089 0
      vertex 25.8737 3.37365 5
      vertex 25.8737 3.37365 0
    endloop
  endfacet
  facet normal -0.970031 -0.242983 0
    outer loop
      vertex 29.7558 5.44871 0
      vertex 29.701 5.66765 5
      vertex 29.701 5.66765 0
    endloop
  endfacet
  facet normal -0.970031 -0.242983 0
    outer loop
      vertex 29.701 5.66765 5
      vertex 29.7558 5.44871 0
      vertex 29.7558 5.44871 5
    endloop
  endfacet
  facet normal -0.989176 -0.146732 0
    outer loop
      vertex 29.7889 5.22544 0
      vertex 29.7558 5.44871 5
      vertex 29.7558 5.44871 0
    endloop
  endfacet
  facet normal -0.989176 -0.146732 0
    outer loop
      vertex 29.7558 5.44871 5
      vertex 29.7889 5.22544 0
      vertex 29.7889 5.22544 5
    endloop
  endfacet
  facet normal -0.941546 -0.336883 0
    outer loop
      vertex 29.701 5.66765 0
      vertex 29.6249 5.88017 5
      vertex 29.6249 5.88017 0
    endloop
  endfacet
  facet normal -0.941546 -0.336883 0
    outer loop
      vertex 29.6249 5.88017 5
      vertex 29.701 5.66765 0
      vertex 29.701 5.66765 5
    endloop
  endfacet
  facet normal -0.803207 -0.5957 0
    outer loop
      vertex 29.4124 6.27781 0
      vertex 29.2779 6.4591 5
      vertex 29.2779 6.4591 0
    endloop
  endfacet
  facet normal -0.803207 -0.5957 0
    outer loop
      vertex 29.2779 6.4591 5
      vertex 29.4124 6.27781 0
      vertex 29.4124 6.27781 5
    endloop
  endfacet
  facet normal -0.740948 -0.671562 0
    outer loop
      vertex 29.2779 6.4591 0
      vertex 29.1263 6.62634 5
      vertex 29.1263 6.62634 0
    endloop
  endfacet
  facet normal -0.740948 -0.671562 0
    outer loop
      vertex 29.1263 6.62634 5
      vertex 29.2779 6.4591 0
      vertex 29.2779 6.4591 5
    endloop
  endfacet
  facet normal -0.857727 -0.514105 0
    outer loop
      vertex 29.5284 6.08421 0
      vertex 29.4124 6.27781 5
      vertex 29.4124 6.27781 0
    endloop
  endfacet
  facet normal -0.857727 -0.514105 0
    outer loop
      vertex 29.4124 6.27781 5
      vertex 29.5284 6.08421 0
      vertex 29.5284 6.08421 5
    endloop
  endfacet
  facet normal -0.146728 -0.989177 0
    outer loop
      vertex 27.7254 7.28892 0
      vertex 27.9487 7.25581 5
      vertex 27.7254 7.28892 5
    endloop
  endfacet
  facet normal -0.146728 -0.989177 -0
    outer loop
      vertex 27.9487 7.25581 5
      vertex 27.7254 7.28892 0
      vertex 27.9487 7.25581 0
    endloop
  endfacet
  facet normal -0.242983 -0.970031 0
    outer loop
      vertex 27.9487 7.25581 0
      vertex 28.1677 7.20096 5
      vertex 27.9487 7.25581 5
    endloop
  endfacet
  facet normal -0.242983 -0.970031 -0
    outer loop
      vertex 28.1677 7.20096 5
      vertex 27.9487 7.25581 0
      vertex 28.1677 7.20096 0
    endloop
  endfacet
  facet normal -0.0490673 -0.998795 0
    outer loop
      vertex 27.5 7.3 0
      vertex 27.7254 7.28892 5
      vertex 27.5 7.3 5
    endloop
  endfacet
  facet normal -0.0490673 -0.998795 -0
    outer loop
      vertex 27.7254 7.28892 5
      vertex 27.5 7.3 0
      vertex 27.7254 7.28892 0
    endloop
  endfacet
  facet normal -0.514107 -0.857726 0
    outer loop
      vertex 28.5842 7.02842 0
      vertex 28.7778 6.91238 5
      vertex 28.5842 7.02842 5
    endloop
  endfacet
  facet normal -0.514107 -0.857726 -0
    outer loop
      vertex 28.7778 6.91238 5
      vertex 28.5842 7.02842 0
      vertex 28.7778 6.91238 0
    endloop
  endfacet
  facet normal -0.427556 -0.903989 0
    outer loop
      vertex 28.3802 7.12492 0
      vertex 28.5842 7.02842 5
      vertex 28.3802 7.12492 5
    endloop
  endfacet
  facet normal -0.427556 -0.903989 -0
    outer loop
      vertex 28.5842 7.02842 5
      vertex 28.3802 7.12492 0
      vertex 28.5842 7.02842 0
    endloop
  endfacet
  facet normal -0.595697 -0.803209 0
    outer loop
      vertex 28.7778 6.91238 0
      vertex 28.9591 6.77792 5
      vertex 28.7778 6.91238 5
    endloop
  endfacet
  facet normal -0.595697 -0.803209 -0
    outer loop
      vertex 28.9591 6.77792 5
      vertex 28.7778 6.91238 0
      vertex 28.9591 6.77792 0
    endloop
  endfacet
  facet normal 0.989176 -0.146732 0
    outer loop
      vertex 25.2111 5.22544 5
      vertex 25.2442 5.44871 0
      vertex 25.2442 5.44871 5
    endloop
  endfacet
  facet normal 0.989176 -0.146732 0
    outer loop
      vertex 25.2442 5.44871 0
      vertex 25.2111 5.22544 5
      vertex 25.2111 5.22544 0
    endloop
  endfacet
  facet normal 0.803207 -0.5957 0
    outer loop
      vertex 25.5876 6.27781 5
      vertex 25.7221 6.4591 0
      vertex 25.7221 6.4591 5
    endloop
  endfacet
  facet normal 0.803207 -0.5957 0
    outer loop
      vertex 25.7221 6.4591 0
      vertex 25.5876 6.27781 5
      vertex 25.5876 6.27781 0
    endloop
  endfacet
  facet normal 0.941546 -0.336883 0
    outer loop
      vertex 25.299 5.66765 5
      vertex 25.3751 5.88017 0
      vertex 25.3751 5.88017 5
    endloop
  endfacet
  facet normal 0.941546 -0.336883 0
    outer loop
      vertex 25.3751 5.88017 0
      vertex 25.299 5.66765 5
      vertex 25.299 5.66765 0
    endloop
  endfacet
  facet normal 0.970031 -0.242983 0
    outer loop
      vertex 25.2442 5.44871 5
      vertex 25.299 5.66765 0
      vertex 25.299 5.66765 5
    endloop
  endfacet
  facet normal 0.970031 -0.242983 0
    outer loop
      vertex 25.299 5.66765 0
      vertex 25.2442 5.44871 5
      vertex 25.2442 5.44871 0
    endloop
  endfacet
  facet normal 0.998796 -0.0490631 0
    outer loop
      vertex 25.2 5 5
      vertex 25.2111 5.22544 0
      vertex 25.2111 5.22544 5
    endloop
  endfacet
  facet normal 0.998796 -0.0490631 0
    outer loop
      vertex 25.2111 5.22544 0
      vertex 25.2 5 5
      vertex 25.2 5 0
    endloop
  endfacet
  facet normal 0.514103 -0.857728 0
    outer loop
      vertex 26.2222 6.91238 0
      vertex 26.4158 7.02842 5
      vertex 26.2222 6.91238 5
    endloop
  endfacet
  facet normal 0.514103 -0.857728 0
    outer loop
      vertex 26.4158 7.02842 5
      vertex 26.2222 6.91238 0
      vertex 26.4158 7.02842 0
    endloop
  endfacet
  facet normal 0.595697 -0.803209 0
    outer loop
      vertex 26.0409 6.77792 0
      vertex 26.2222 6.91238 5
      vertex 26.0409 6.77792 5
    endloop
  endfacet
  facet normal 0.595697 -0.803209 0
    outer loop
      vertex 26.2222 6.91238 5
      vertex 26.0409 6.77792 0
      vertex 26.2222 6.91238 0
    endloop
  endfacet
  facet normal 0.671562 -0.740948 0
    outer loop
      vertex 25.8737 6.62634 0
      vertex 26.0409 6.77792 5
      vertex 25.8737 6.62634 5
    endloop
  endfacet
  facet normal 0.671562 -0.740948 0
    outer loop
      vertex 26.0409 6.77792 5
      vertex 25.8737 6.62634 0
      vertex 26.0409 6.77792 0
    endloop
  endfacet
  facet normal 0.14673 -0.989177 0
    outer loop
      vertex 27.0513 7.25581 0
      vertex 27.2746 7.28892 5
      vertex 27.0513 7.25581 5
    endloop
  endfacet
  facet normal 0.14673 -0.989177 0
    outer loop
      vertex 27.2746 7.28892 5
      vertex 27.0513 7.25581 0
      vertex 27.2746 7.28892 0
    endloop
  endfacet
  facet normal -0.998796 0.0490628 0
    outer loop
      vertex 29.7889 4.77456 0
      vertex 29.8 5 5
      vertex 29.8 5 0
    endloop
  endfacet
  facet normal -0.998796 0.0490628 0
    outer loop
      vertex 29.8 5 5
      vertex 29.7889 4.77456 0
      vertex 29.7889 4.77456 5
    endloop
  endfacet
  facet normal -0.146728 0.989177 0
    outer loop
      vertex 27.9487 2.74419 0
      vertex 27.7254 2.71107 5
      vertex 27.9487 2.74419 5
    endloop
  endfacet
  facet normal -0.146728 0.989177 0
    outer loop
      vertex 27.7254 2.71107 5
      vertex 27.9487 2.74419 0
      vertex 27.7254 2.71107 0
    endloop
  endfacet
  facet normal -0.514107 0.857726 0
    outer loop
      vertex 28.7778 3.08762 0
      vertex 28.5842 2.97158 5
      vertex 28.7778 3.08762 5
    endloop
  endfacet
  facet normal -0.514107 0.857726 0
    outer loop
      vertex 28.5842 2.97158 5
      vertex 28.7778 3.08762 0
      vertex 28.5842 2.97158 0
    endloop
  endfacet
  facet normal -0.671562 0.740948 0
    outer loop
      vertex 29.1263 3.37365 0
      vertex 28.9591 3.22208 5
      vertex 29.1263 3.37365 5
    endloop
  endfacet
  facet normal -0.671562 0.740948 0
    outer loop
      vertex 28.9591 3.22208 5
      vertex 29.1263 3.37365 0
      vertex 28.9591 3.22208 0
    endloop
  endfacet
  facet normal -0.803207 0.5957 0
    outer loop
      vertex 29.2779 3.54089 0
      vertex 29.4124 3.72219 5
      vertex 29.4124 3.72219 0
    endloop
  endfacet
  facet normal -0.803207 0.5957 0
    outer loop
      vertex 29.4124 3.72219 5
      vertex 29.2779 3.54089 0
      vertex 29.2779 3.54089 5
    endloop
  endfacet
  facet normal -0.857727 0.514105 0
    outer loop
      vertex 29.4124 3.72219 0
      vertex 29.5284 3.91579 5
      vertex 29.5284 3.91579 0
    endloop
  endfacet
  facet normal -0.857727 0.514105 0
    outer loop
      vertex 29.5284 3.91579 5
      vertex 29.4124 3.72219 0
      vertex 29.4124 3.72219 5
    endloop
  endfacet
  facet normal 0.595697 0.803209 -0
    outer loop
      vertex 26.2222 3.08762 0
      vertex 26.0409 3.22208 5
      vertex 26.2222 3.08762 5
    endloop
  endfacet
  facet normal 0.595697 0.803209 0
    outer loop
      vertex 26.0409 3.22208 5
      vertex 26.2222 3.08762 0
      vertex 26.0409 3.22208 0
    endloop
  endfacet
  facet normal 0.514103 0.857728 -0
    outer loop
      vertex 26.4158 2.97158 0
      vertex 26.2222 3.08762 5
      vertex 26.4158 2.97158 5
    endloop
  endfacet
  facet normal 0.514103 0.857728 0
    outer loop
      vertex 26.2222 3.08762 5
      vertex 26.4158 2.97158 0
      vertex 26.2222 3.08762 0
    endloop
  endfacet
  facet normal 0.427556 0.903989 -0
    outer loop
      vertex 26.6198 2.87508 0
      vertex 26.4158 2.97158 5
      vertex 26.6198 2.87508 5
    endloop
  endfacet
  facet normal 0.427556 0.903989 0
    outer loop
      vertex 26.4158 2.97158 5
      vertex 26.6198 2.87508 0
      vertex 26.4158 2.97158 0
    endloop
  endfacet
  facet normal 0.0490669 0.998795 -0
    outer loop
      vertex 27.5 2.7 0
      vertex 27.2746 2.71107 5
      vertex 27.5 2.7 5
    endloop
  endfacet
  facet normal 0.0490669 0.998795 0
    outer loop
      vertex 27.2746 2.71107 5
      vertex 27.5 2.7 0
      vertex 27.2746 2.71107 0
    endloop
  endfacet
  facet normal 0.857727 0.514105 0
    outer loop
      vertex 25.5876 3.72219 5
      vertex 25.4716 3.91579 0
      vertex 25.4716 3.91579 5
    endloop
  endfacet
  facet normal 0.857727 0.514105 0
    outer loop
      vertex 25.4716 3.91579 0
      vertex 25.5876 3.72219 5
      vertex 25.5876 3.72219 0
    endloop
  endfacet
  facet normal 0.903989 0.427556 0
    outer loop
      vertex 25.4716 3.91579 5
      vertex 25.3751 4.11983 0
      vertex 25.3751 4.11983 5
    endloop
  endfacet
  facet normal 0.903989 0.427556 0
    outer loop
      vertex 25.3751 4.11983 0
      vertex 25.4716 3.91579 5
      vertex 25.4716 3.91579 0
    endloop
  endfacet
  facet normal 0.989176 0.146732 0
    outer loop
      vertex 25.2442 4.55129 5
      vertex 25.2111 4.77456 0
      vertex 25.2111 4.77456 5
    endloop
  endfacet
  facet normal 0.989176 0.146732 0
    outer loop
      vertex 25.2111 4.77456 0
      vertex 25.2442 4.55129 5
      vertex 25.2442 4.55129 0
    endloop
  endfacet
  facet normal 0.998796 0.0490628 0
    outer loop
      vertex 25.2111 4.77456 5
      vertex 25.2 5 0
      vertex 25.2 5 5
    endloop
  endfacet
  facet normal 0.998796 0.0490628 0
    outer loop
      vertex 25.2 5 0
      vertex 25.2111 4.77456 5
      vertex 25.2111 4.77456 0
    endloop
  endfacet
  facet normal 0.336888 -0.941545 0
    outer loop
      vertex 26.6198 7.12492 0
      vertex 26.8323 7.20096 5
      vertex 26.6198 7.12492 5
    endloop
  endfacet
  facet normal 0.336888 -0.941545 0
    outer loop
      vertex 26.8323 7.20096 5
      vertex 26.6198 7.12492 0
      vertex 26.8323 7.20096 0
    endloop
  endfacet
  facet normal -0.242983 0.970031 0
    outer loop
      vertex 28.1677 2.79904 0
      vertex 27.9487 2.74419 5
      vertex 28.1677 2.79904 5
    endloop
  endfacet
  facet normal -0.242983 0.970031 0
    outer loop
      vertex 27.9487 2.74419 5
      vertex 28.1677 2.79904 0
      vertex 27.9487 2.74419 0
    endloop
  endfacet
  facet normal -0.427556 0.903989 0
    outer loop
      vertex 28.5842 2.97158 0
      vertex 28.3802 2.87508 5
      vertex 28.5842 2.97158 5
    endloop
  endfacet
  facet normal -0.427556 0.903989 0
    outer loop
      vertex 28.3802 2.87508 5
      vertex 28.5842 2.97158 0
      vertex 28.3802 2.87508 0
    endloop
  endfacet
  facet normal -0.595697 0.803209 0
    outer loop
      vertex 28.9591 3.22208 0
      vertex 28.7778 3.08762 5
      vertex 28.9591 3.22208 5
    endloop
  endfacet
  facet normal -0.595697 0.803209 0
    outer loop
      vertex 28.7778 3.08762 5
      vertex 28.9591 3.22208 0
      vertex 28.7778 3.08762 0
    endloop
  endfacet
  facet normal -0.941546 0.336883 0
    outer loop
      vertex 29.6249 4.11983 0
      vertex 29.701 4.33235 5
      vertex 29.701 4.33235 0
    endloop
  endfacet
  facet normal -0.941546 0.336883 0
    outer loop
      vertex 29.701 4.33235 5
      vertex 29.6249 4.11983 0
      vertex 29.6249 4.11983 5
    endloop
  endfacet
  facet normal -0.989176 0.146732 0
    outer loop
      vertex 29.7558 4.55129 0
      vertex 29.7889 4.77456 5
      vertex 29.7889 4.77456 0
    endloop
  endfacet
  facet normal -0.989176 0.146732 0
    outer loop
      vertex 29.7889 4.77456 5
      vertex 29.7558 4.55129 0
      vertex 29.7558 4.55129 5
    endloop
  endfacet
  facet normal 0.336888 0.941545 -0
    outer loop
      vertex 26.8323 2.79904 0
      vertex 26.6198 2.87508 5
      vertex 26.8323 2.79904 5
    endloop
  endfacet
  facet normal 0.336888 0.941545 0
    outer loop
      vertex 26.6198 2.87508 5
      vertex 26.8323 2.79904 0
      vertex 26.6198 2.87508 0
    endloop
  endfacet
  facet normal 0.14673 0.989177 -0
    outer loop
      vertex 27.2746 2.71107 0
      vertex 27.0513 2.74419 5
      vertex 27.2746 2.71107 5
    endloop
  endfacet
  facet normal 0.14673 0.989177 0
    outer loop
      vertex 27.0513 2.74419 5
      vertex 27.2746 2.71107 0
      vertex 27.0513 2.74419 0
    endloop
  endfacet
  facet normal 0.671562 0.740948 -0
    outer loop
      vertex 26.0409 3.22208 0
      vertex 25.8737 3.37365 5
      vertex 26.0409 3.22208 5
    endloop
  endfacet
  facet normal 0.671562 0.740948 0
    outer loop
      vertex 25.8737 3.37365 5
      vertex 26.0409 3.22208 0
      vertex 25.8737 3.37365 0
    endloop
  endfacet
  facet normal 0.803207 0.5957 0
    outer loop
      vertex 25.7221 3.54089 5
      vertex 25.5876 3.72219 0
      vertex 25.5876 3.72219 5
    endloop
  endfacet
  facet normal 0.803207 0.5957 0
    outer loop
      vertex 25.5876 3.72219 0
      vertex 25.7221 3.54089 5
      vertex 25.7221 3.54089 0
    endloop
  endfacet
  facet normal 0.970031 0.242983 0
    outer loop
      vertex 25.299 4.33235 5
      vertex 25.2442 4.55129 0
      vertex 25.2442 4.55129 5
    endloop
  endfacet
  facet normal 0.970031 0.242983 0
    outer loop
      vertex 25.2442 4.55129 0
      vertex 25.299 4.33235 5
      vertex 25.299 4.33235 0
    endloop
  endfacet
  facet normal -0.998795 -0.0490673 0
    outer loop
      vertex 9.8 5 0
      vertex 9.78892 5.22544 5
      vertex 9.78892 5.22544 0
    endloop
  endfacet
  facet normal -0.998795 -0.0490673 0
    outer loop
      vertex 9.78892 5.22544 5
      vertex 9.8 5 0
      vertex 9.8 5 5
    endloop
  endfacet
  facet normal 0.0490671 -0.998795 0
    outer loop
      vertex 7.27456 7.28892 0
      vertex 7.5 7.3 5
      vertex 7.27456 7.28892 5
    endloop
  endfacet
  facet normal 0.0490671 -0.998795 0
    outer loop
      vertex 7.5 7.3 5
      vertex 7.27456 7.28892 0
      vertex 7.5 7.3 0
    endloop
  endfacet
  facet normal -0.0490673 0.998795 0
    outer loop
      vertex 7.72544 2.71107 0
      vertex 7.5 2.7 5
      vertex 7.72544 2.71107 5
    endloop
  endfacet
  facet normal -0.0490673 0.998795 0
    outer loop
      vertex 7.5 2.7 5
      vertex 7.72544 2.71107 0
      vertex 7.5 2.7 0
    endloop
  endfacet
  facet normal -0.671562 -0.740948 0
    outer loop
      vertex 8.9591 6.77792 0
      vertex 9.12634 6.62634 5
      vertex 8.9591 6.77792 5
    endloop
  endfacet
  facet normal -0.671562 -0.740948 -0
    outer loop
      vertex 9.12634 6.62634 5
      vertex 8.9591 6.77792 0
      vertex 9.12634 6.62634 0
    endloop
  endfacet
  facet normal 0.740948 -0.671562 0
    outer loop
      vertex 5.72208 6.4591 5
      vertex 5.87365 6.62634 0
      vertex 5.87365 6.62634 5
    endloop
  endfacet
  facet normal 0.740948 -0.671562 0
    outer loop
      vertex 5.87365 6.62634 0
      vertex 5.72208 6.4591 5
      vertex 5.72208 6.4591 0
    endloop
  endfacet
  facet normal 0.427556 -0.903989 0
    outer loop
      vertex 6.41579 7.02842 0
      vertex 6.61983 7.12492 5
      vertex 6.41579 7.02842 5
    endloop
  endfacet
  facet normal 0.427556 -0.903989 0
    outer loop
      vertex 6.61983 7.12492 5
      vertex 6.41579 7.02842 0
      vertex 6.61983 7.12492 0
    endloop
  endfacet
  facet normal 0.941545 0.336887 0
    outer loop
      vertex 5.37508 4.11983 5
      vertex 5.29904 4.33235 0
      vertex 5.29904 4.33235 5
    endloop
  endfacet
  facet normal 0.941545 0.336887 0
    outer loop
      vertex 5.29904 4.33235 0
      vertex 5.37508 4.11983 5
      vertex 5.37508 4.11983 0
    endloop
  endfacet
  facet normal -0.903989 -0.427556 0
    outer loop
      vertex 9.62492 5.88017 0
      vertex 9.52842 6.08421 5
      vertex 9.52842 6.08421 0
    endloop
  endfacet
  facet normal -0.903989 -0.427556 0
    outer loop
      vertex 9.52842 6.08421 5
      vertex 9.62492 5.88017 0
      vertex 9.62492 5.88017 5
    endloop
  endfacet
  facet normal -0.336887 -0.941545 0
    outer loop
      vertex 8.16765 7.20096 0
      vertex 8.38017 7.12492 5
      vertex 8.16765 7.20096 5
    endloop
  endfacet
  facet normal -0.336887 -0.941545 -0
    outer loop
      vertex 8.38017 7.12492 5
      vertex 8.16765 7.20096 0
      vertex 8.38017 7.12492 0
    endloop
  endfacet
  facet normal 0.903989 -0.427556 0
    outer loop
      vertex 5.37508 5.88017 5
      vertex 5.47158 6.08421 0
      vertex 5.47158 6.08421 5
    endloop
  endfacet
  facet normal 0.903989 -0.427556 0
    outer loop
      vertex 5.47158 6.08421 0
      vertex 5.37508 5.88017 5
      vertex 5.37508 5.88017 0
    endloop
  endfacet
  facet normal 0.857727 -0.514105 0
    outer loop
      vertex 5.47158 6.08421 5
      vertex 5.58762 6.27781 0
      vertex 5.58762 6.27781 5
    endloop
  endfacet
  facet normal 0.857727 -0.514105 0
    outer loop
      vertex 5.58762 6.27781 0
      vertex 5.47158 6.08421 5
      vertex 5.47158 6.08421 0
    endloop
  endfacet
  facet normal 0.242983 -0.970031 0
    outer loop
      vertex 6.83235 7.20096 0
      vertex 7.05129 7.25581 5
      vertex 6.83235 7.20096 5
    endloop
  endfacet
  facet normal 0.242983 -0.970031 0
    outer loop
      vertex 7.05129 7.25581 5
      vertex 6.83235 7.20096 0
      vertex 7.05129 7.25581 0
    endloop
  endfacet
  facet normal -0.903989 0.427556 0
    outer loop
      vertex 9.52842 3.91579 0
      vertex 9.62492 4.11983 5
      vertex 9.62492 4.11983 0
    endloop
  endfacet
  facet normal -0.903989 0.427556 0
    outer loop
      vertex 9.62492 4.11983 5
      vertex 9.52842 3.91579 0
      vertex 9.52842 3.91579 5
    endloop
  endfacet
  facet normal -0.336887 0.941545 0
    outer loop
      vertex 8.38017 2.87508 0
      vertex 8.16765 2.79904 5
      vertex 8.38017 2.87508 5
    endloop
  endfacet
  facet normal -0.336887 0.941545 0
    outer loop
      vertex 8.16765 2.79904 5
      vertex 8.38017 2.87508 0
      vertex 8.16765 2.79904 0
    endloop
  endfacet
  facet normal -0.740948 0.671562 0
    outer loop
      vertex 9.12634 3.37365 0
      vertex 9.27792 3.54089 5
      vertex 9.27792 3.54089 0
    endloop
  endfacet
  facet normal -0.740948 0.671562 0
    outer loop
      vertex 9.27792 3.54089 5
      vertex 9.12634 3.37365 0
      vertex 9.12634 3.37365 5
    endloop
  endfacet
  facet normal -0.970031 0.242983 0
    outer loop
      vertex 9.70096 4.33235 0
      vertex 9.75581 4.55129 5
      vertex 9.75581 4.55129 0
    endloop
  endfacet
  facet normal -0.970031 0.242983 0
    outer loop
      vertex 9.75581 4.55129 5
      vertex 9.70096 4.33235 0
      vertex 9.70096 4.33235 5
    endloop
  endfacet
  facet normal 0.242983 0.970031 -0
    outer loop
      vertex 7.05129 2.74419 0
      vertex 6.83235 2.79904 5
      vertex 7.05129 2.74419 5
    endloop
  endfacet
  facet normal 0.242983 0.970031 0
    outer loop
      vertex 6.83235 2.79904 5
      vertex 7.05129 2.74419 0
      vertex 6.83235 2.79904 0
    endloop
  endfacet
  facet normal 0.671562 0.740948 -0
    outer loop
      vertex 6.04089 3.22208 0
      vertex 5.87365 3.37365 5
      vertex 6.04089 3.22208 5
    endloop
  endfacet
  facet normal 0.671562 0.740948 0
    outer loop
      vertex 5.87365 3.37365 5
      vertex 6.04089 3.22208 0
      vertex 5.87365 3.37365 0
    endloop
  endfacet
  facet normal 0.740948 0.671562 0
    outer loop
      vertex 5.87365 3.37365 5
      vertex 5.72208 3.54089 0
      vertex 5.72208 3.54089 5
    endloop
  endfacet
  facet normal 0.740948 0.671562 0
    outer loop
      vertex 5.72208 3.54089 0
      vertex 5.87365 3.37365 5
      vertex 5.87365 3.37365 0
    endloop
  endfacet
  facet normal -0.970031 -0.242983 0
    outer loop
      vertex 9.75581 5.44871 0
      vertex 9.70096 5.66765 5
      vertex 9.70096 5.66765 0
    endloop
  endfacet
  facet normal -0.970031 -0.242983 0
    outer loop
      vertex 9.70096 5.66765 5
      vertex 9.75581 5.44871 0
      vertex 9.75581 5.44871 5
    endloop
  endfacet
  facet normal -0.989177 -0.146728 0
    outer loop
      vertex 9.78892 5.22544 0
      vertex 9.75581 5.44871 5
      vertex 9.75581 5.44871 0
    endloop
  endfacet
  facet normal -0.989177 -0.146728 0
    outer loop
      vertex 9.75581 5.44871 5
      vertex 9.78892 5.22544 0
      vertex 9.78892 5.22544 5
    endloop
  endfacet
  facet normal -0.941545 -0.336887 0
    outer loop
      vertex 9.70096 5.66765 0
      vertex 9.62492 5.88017 5
      vertex 9.62492 5.88017 0
    endloop
  endfacet
  facet normal -0.941545 -0.336887 0
    outer loop
      vertex 9.62492 5.88017 5
      vertex 9.70096 5.66765 0
      vertex 9.70096 5.66765 5
    endloop
  endfacet
  facet normal -0.803209 -0.595697 0
    outer loop
      vertex 9.41238 6.27781 0
      vertex 9.27792 6.4591 5
      vertex 9.27792 6.4591 0
    endloop
  endfacet
  facet normal -0.803209 -0.595697 0
    outer loop
      vertex 9.27792 6.4591 5
      vertex 9.41238 6.27781 0
      vertex 9.41238 6.27781 5
    endloop
  endfacet
  facet normal -0.740948 -0.671562 0
    outer loop
      vertex 9.27792 6.4591 0
      vertex 9.12634 6.62634 5
      vertex 9.12634 6.62634 0
    endloop
  endfacet
  facet normal -0.740948 -0.671562 0
    outer loop
      vertex 9.12634 6.62634 5
      vertex 9.27792 6.4591 0
      vertex 9.27792 6.4591 5
    endloop
  endfacet
  facet normal -0.857727 -0.514105 0
    outer loop
      vertex 9.52842 6.08421 0
      vertex 9.41238 6.27781 5
      vertex 9.41238 6.27781 0
    endloop
  endfacet
  facet normal -0.857727 -0.514105 0
    outer loop
      vertex 9.41238 6.27781 5
      vertex 9.52842 6.08421 0
      vertex 9.52842 6.08421 5
    endloop
  endfacet
  facet normal -0.146728 -0.989177 0
    outer loop
      vertex 7.72544 7.28892 0
      vertex 7.94871 7.25581 5
      vertex 7.72544 7.28892 5
    endloop
  endfacet
  facet normal -0.146728 -0.989177 -0
    outer loop
      vertex 7.94871 7.25581 5
      vertex 7.72544 7.28892 0
      vertex 7.94871 7.25581 0
    endloop
  endfacet
  facet normal -0.0490673 -0.998795 0
    outer loop
      vertex 7.5 7.3 0
      vertex 7.72544 7.28892 5
      vertex 7.5 7.3 5
    endloop
  endfacet
  facet normal -0.0490673 -0.998795 -0
    outer loop
      vertex 7.72544 7.28892 5
      vertex 7.5 7.3 0
      vertex 7.72544 7.28892 0
    endloop
  endfacet
  facet normal -0.514105 -0.857727 0
    outer loop
      vertex 8.58421 7.02842 0
      vertex 8.77781 6.91238 5
      vertex 8.58421 7.02842 5
    endloop
  endfacet
  facet normal -0.514105 -0.857727 -0
    outer loop
      vertex 8.77781 6.91238 5
      vertex 8.58421 7.02842 0
      vertex 8.77781 6.91238 0
    endloop
  endfacet
  facet normal -0.427556 -0.903989 0
    outer loop
      vertex 8.38017 7.12492 0
      vertex 8.58421 7.02842 5
      vertex 8.38017 7.12492 5
    endloop
  endfacet
  facet normal -0.427556 -0.903989 -0
    outer loop
      vertex 8.58421 7.02842 5
      vertex 8.38017 7.12492 0
      vertex 8.58421 7.02842 0
    endloop
  endfacet
  facet normal -0.595697 -0.803209 0
    outer loop
      vertex 8.77781 6.91238 0
      vertex 8.9591 6.77792 5
      vertex 8.77781 6.91238 5
    endloop
  endfacet
  facet normal -0.595697 -0.803209 -0
    outer loop
      vertex 8.9591 6.77792 5
      vertex 8.77781 6.91238 0
      vertex 8.9591 6.77792 0
    endloop
  endfacet
  facet normal 0.989177 -0.146728 0
    outer loop
      vertex 5.21107 5.22544 5
      vertex 5.24419 5.44871 0
      vertex 5.24419 5.44871 5
    endloop
  endfacet
  facet normal 0.989177 -0.146728 0
    outer loop
      vertex 5.24419 5.44871 0
      vertex 5.21107 5.22544 5
      vertex 5.21107 5.22544 0
    endloop
  endfacet
  facet normal 0.941545 -0.336887 0
    outer loop
      vertex 5.29904 5.66765 5
      vertex 5.37508 5.88017 0
      vertex 5.37508 5.88017 5
    endloop
  endfacet
  facet normal 0.941545 -0.336887 0
    outer loop
      vertex 5.37508 5.88017 0
      vertex 5.29904 5.66765 5
      vertex 5.29904 5.66765 0
    endloop
  endfacet
  facet normal 0.998795 -0.0490673 0
    outer loop
      vertex 5.2 5 5
      vertex 5.21107 5.22544 0
      vertex 5.21107 5.22544 5
    endloop
  endfacet
  facet normal 0.998795 -0.0490673 0
    outer loop
      vertex 5.21107 5.22544 0
      vertex 5.2 5 5
      vertex 5.2 5 0
    endloop
  endfacet
  facet normal 0.595697 -0.803209 0
    outer loop
      vertex 6.04089 6.77792 0
      vertex 6.22219 6.91238 5
      vertex 6.04089 6.77792 5
    endloop
  endfacet
  facet normal 0.595697 -0.803209 0
    outer loop
      vertex 6.22219 6.91238 5
      vertex 6.04089 6.77792 0
      vertex 6.22219 6.91238 0
    endloop
  endfacet
  facet normal 0.671562 -0.740948 0
    outer loop
      vertex 5.87365 6.62634 0
      vertex 6.04089 6.77792 5
      vertex 5.87365 6.62634 5
    endloop
  endfacet
  facet normal 0.671562 -0.740948 0
    outer loop
      vertex 6.04089 6.77792 5
      vertex 5.87365 6.62634 0
      vertex 6.04089 6.77792 0
    endloop
  endfacet
  facet normal 0.336887 -0.941545 0
    outer loop
      vertex 6.61983 7.12492 0
      vertex 6.83235 7.20096 5
      vertex 6.61983 7.12492 5
    endloop
  endfacet
  facet normal 0.336887 -0.941545 0
    outer loop
      vertex 6.83235 7.20096 5
      vertex 6.61983 7.12492 0
      vertex 6.83235 7.20096 0
    endloop
  endfacet
  facet normal 0.146728 -0.989177 0
    outer loop
      vertex 7.05129 7.25581 0
      vertex 7.27456 7.28892 5
      vertex 7.05129 7.25581 5
    endloop
  endfacet
  facet normal 0.146728 -0.989177 0
    outer loop
      vertex 7.27456 7.28892 5
      vertex 7.05129 7.25581 0
      vertex 7.27456 7.28892 0
    endloop
  endfacet
  facet normal -0.146728 0.989177 0
    outer loop
      vertex 7.94871 2.74419 0
      vertex 7.72544 2.71107 5
      vertex 7.94871 2.74419 5
    endloop
  endfacet
  facet normal -0.146728 0.989177 0
    outer loop
      vertex 7.72544 2.71107 5
      vertex 7.94871 2.74419 0
      vertex 7.72544 2.71107 0
    endloop
  endfacet
  facet normal -0.514105 0.857727 0
    outer loop
      vertex 8.77781 3.08762 0
      vertex 8.58421 2.97158 5
      vertex 8.77781 3.08762 5
    endloop
  endfacet
  facet normal -0.514105 0.857727 0
    outer loop
      vertex 8.58421 2.97158 5
      vertex 8.77781 3.08762 0
      vertex 8.58421 2.97158 0
    endloop
  endfacet
  facet normal -0.671562 0.740948 0
    outer loop
      vertex 9.12634 3.37365 0
      vertex 8.9591 3.22208 5
      vertex 9.12634 3.37365 5
    endloop
  endfacet
  facet normal -0.671562 0.740948 0
    outer loop
      vertex 8.9591 3.22208 5
      vertex 9.12634 3.37365 0
      vertex 8.9591 3.22208 0
    endloop
  endfacet
  facet normal -0.803209 0.595697 0
    outer loop
      vertex 9.27792 3.54089 0
      vertex 9.41238 3.72219 5
      vertex 9.41238 3.72219 0
    endloop
  endfacet
  facet normal -0.803209 0.595697 0
    outer loop
      vertex 9.41238 3.72219 5
      vertex 9.27792 3.54089 0
      vertex 9.27792 3.54089 5
    endloop
  endfacet
  facet normal -0.857727 0.514105 0
    outer loop
      vertex 9.41238 3.72219 0
      vertex 9.52842 3.91579 5
      vertex 9.52842 3.91579 0
    endloop
  endfacet
  facet normal -0.857727 0.514105 0
    outer loop
      vertex 9.52842 3.91579 5
      vertex 9.41238 3.72219 0
      vertex 9.41238 3.72219 5
    endloop
  endfacet
  facet normal 0.595697 0.803209 -0
    outer loop
      vertex 6.22219 3.08762 0
      vertex 6.04089 3.22208 5
      vertex 6.22219 3.08762 5
    endloop
  endfacet
  facet normal 0.595697 0.803209 0
    outer loop
      vertex 6.04089 3.22208 5
      vertex 6.22219 3.08762 0
      vertex 6.04089 3.22208 0
    endloop
  endfacet
  facet normal 0.514105 0.857727 -0
    outer loop
      vertex 6.41579 2.97158 0
      vertex 6.22219 3.08762 5
      vertex 6.41579 2.97158 5
    endloop
  endfacet
  facet normal 0.514105 0.857727 0
    outer loop
      vertex 6.22219 3.08762 5
      vertex 6.41579 2.97158 0
      vertex 6.22219 3.08762 0
    endloop
  endfacet
  facet normal 0.427556 0.903989 -0
    outer loop
      vertex 6.61983 2.87508 0
      vertex 6.41579 2.97158 5
      vertex 6.61983 2.87508 5
    endloop
  endfacet
  facet normal 0.427556 0.903989 0
    outer loop
      vertex 6.41579 2.97158 5
      vertex 6.61983 2.87508 0
      vertex 6.41579 2.97158 0
    endloop
  endfacet
  facet normal 0.0490671 0.998795 -0
    outer loop
      vertex 7.5 2.7 0
      vertex 7.27456 2.71107 5
      vertex 7.5 2.7 5
    endloop
  endfacet
  facet normal 0.0490671 0.998795 0
    outer loop
      vertex 7.27456 2.71107 5
      vertex 7.5 2.7 0
      vertex 7.27456 2.71107 0
    endloop
  endfacet
  facet normal 0.857727 0.514105 0
    outer loop
      vertex 5.58762 3.72219 5
      vertex 5.47158 3.91579 0
      vertex 5.47158 3.91579 5
    endloop
  endfacet
  facet normal 0.857727 0.514105 0
    outer loop
      vertex 5.47158 3.91579 0
      vertex 5.58762 3.72219 5
      vertex 5.58762 3.72219 0
    endloop
  endfacet
  facet normal 0.903989 0.427556 0
    outer loop
      vertex 5.47158 3.91579 5
      vertex 5.37508 4.11983 0
      vertex 5.37508 4.11983 5
    endloop
  endfacet
  facet normal 0.903989 0.427556 0
    outer loop
      vertex 5.37508 4.11983 0
      vertex 5.47158 3.91579 5
      vertex 5.47158 3.91579 0
    endloop
  endfacet
  facet normal 0.989177 0.146728 0
    outer loop
      vertex 5.24419 4.55129 5
      vertex 5.21107 4.77456 0
      vertex 5.21107 4.77456 5
    endloop
  endfacet
  facet normal 0.989177 0.146728 0
    outer loop
      vertex 5.21107 4.77456 0
      vertex 5.24419 4.55129 5
      vertex 5.24419 4.55129 0
    endloop
  endfacet
  facet normal -0.242983 -0.970031 0
    outer loop
      vertex 7.94871 7.25581 0
      vertex 8.16765 7.20096 5
      vertex 7.94871 7.25581 5
    endloop
  endfacet
  facet normal -0.242983 -0.970031 -0
    outer loop
      vertex 8.16765 7.20096 5
      vertex 7.94871 7.25581 0
      vertex 8.16765 7.20096 0
    endloop
  endfacet
  facet normal 0.803209 -0.595697 0
    outer loop
      vertex 5.58762 6.27781 5
      vertex 5.72208 6.4591 0
      vertex 5.72208 6.4591 5
    endloop
  endfacet
  facet normal 0.803209 -0.595697 0
    outer loop
      vertex 5.72208 6.4591 0
      vertex 5.58762 6.27781 5
      vertex 5.58762 6.27781 0
    endloop
  endfacet
  facet normal 0.970031 -0.242983 0
    outer loop
      vertex 5.24419 5.44871 5
      vertex 5.29904 5.66765 0
      vertex 5.29904 5.66765 5
    endloop
  endfacet
  facet normal 0.970031 -0.242983 0
    outer loop
      vertex 5.29904 5.66765 0
      vertex 5.24419 5.44871 5
      vertex 5.24419 5.44871 0
    endloop
  endfacet
  facet normal 0.998795 0.0490671 0
    outer loop
      vertex 5.21107 4.77456 5
      vertex 5.2 5 0
      vertex 5.2 5 5
    endloop
  endfacet
  facet normal 0.998795 0.0490671 0
    outer loop
      vertex 5.2 5 0
      vertex 5.21107 4.77456 5
      vertex 5.21107 4.77456 0
    endloop
  endfacet
  facet normal 0.514105 -0.857727 0
    outer loop
      vertex 6.22219 6.91238 0
      vertex 6.41579 7.02842 5
      vertex 6.22219 6.91238 5
    endloop
  endfacet
  facet normal 0.514105 -0.857727 0
    outer loop
      vertex 6.41579 7.02842 5
      vertex 6.22219 6.91238 0
      vertex 6.41579 7.02842 0
    endloop
  endfacet
  facet normal -0.242983 0.970031 0
    outer loop
      vertex 8.16765 2.79904 0
      vertex 7.94871 2.74419 5
      vertex 8.16765 2.79904 5
    endloop
  endfacet
  facet normal -0.242983 0.970031 0
    outer loop
      vertex 7.94871 2.74419 5
      vertex 8.16765 2.79904 0
      vertex 7.94871 2.74419 0
    endloop
  endfacet
  facet normal -0.427556 0.903989 0
    outer loop
      vertex 8.58421 2.97158 0
      vertex 8.38017 2.87508 5
      vertex 8.58421 2.97158 5
    endloop
  endfacet
  facet normal -0.427556 0.903989 0
    outer loop
      vertex 8.38017 2.87508 5
      vertex 8.58421 2.97158 0
      vertex 8.38017 2.87508 0
    endloop
  endfacet
  facet normal -0.595697 0.803209 0
    outer loop
      vertex 8.9591 3.22208 0
      vertex 8.77781 3.08762 5
      vertex 8.9591 3.22208 5
    endloop
  endfacet
  facet normal -0.595697 0.803209 0
    outer loop
      vertex 8.77781 3.08762 5
      vertex 8.9591 3.22208 0
      vertex 8.77781 3.08762 0
    endloop
  endfacet
  facet normal -0.941545 0.336887 0
    outer loop
      vertex 9.62492 4.11983 0
      vertex 9.70096 4.33235 5
      vertex 9.70096 4.33235 0
    endloop
  endfacet
  facet normal -0.941545 0.336887 0
    outer loop
      vertex 9.70096 4.33235 5
      vertex 9.62492 4.11983 0
      vertex 9.62492 4.11983 5
    endloop
  endfacet
  facet normal -0.989177 0.146728 0
    outer loop
      vertex 9.75581 4.55129 0
      vertex 9.78892 4.77456 5
      vertex 9.78892 4.77456 0
    endloop
  endfacet
  facet normal -0.989177 0.146728 0
    outer loop
      vertex 9.78892 4.77456 5
      vertex 9.75581 4.55129 0
      vertex 9.75581 4.55129 5
    endloop
  endfacet
  facet normal 0.336887 0.941545 -0
    outer loop
      vertex 6.83235 2.79904 0
      vertex 6.61983 2.87508 5
      vertex 6.83235 2.79904 5
    endloop
  endfacet
  facet normal 0.336887 0.941545 0
    outer loop
      vertex 6.61983 2.87508 5
      vertex 6.83235 2.79904 0
      vertex 6.61983 2.87508 0
    endloop
  endfacet
  facet normal 0.146728 0.989177 -0
    outer loop
      vertex 7.27456 2.71107 0
      vertex 7.05129 2.74419 5
      vertex 7.27456 2.71107 5
    endloop
  endfacet
  facet normal 0.146728 0.989177 0
    outer loop
      vertex 7.05129 2.74419 5
      vertex 7.27456 2.71107 0
      vertex 7.05129 2.74419 0
    endloop
  endfacet
  facet normal 0.803209 0.595697 0
    outer loop
      vertex 5.72208 3.54089 5
      vertex 5.58762 3.72219 0
      vertex 5.58762 3.72219 5
    endloop
  endfacet
  facet normal 0.803209 0.595697 0
    outer loop
      vertex 5.58762 3.72219 0
      vertex 5.72208 3.54089 5
      vertex 5.72208 3.54089 0
    endloop
  endfacet
  facet normal 0.970031 0.242983 0
    outer loop
      vertex 5.29904 4.33235 5
      vertex 5.24419 4.55129 0
      vertex 5.24419 4.55129 5
    endloop
  endfacet
  facet normal 0.970031 0.242983 0
    outer loop
      vertex 5.24419 4.55129 0
      vertex 5.29904 4.33235 5
      vertex 5.29904 4.33235 0
    endloop
  endfacet
  facet normal -0.998795 0.0490671 0
    outer loop
      vertex 9.78892 4.77456 0
      vertex 9.8 5 5
      vertex 9.8 5 0
    endloop
  endfacet
  facet normal -0.998795 0.0490671 0
    outer loop
      vertex 9.8 5 5
      vertex 9.78892 4.77456 0
      vertex 9.78892 4.77456 5
    endloop
  endfacet
endsolid OpenSCAD_Model
